<svg width="164" height="32" viewBox="0 0 164 32" fill="none" xmlns="http://www.w3.org/2000/svg">
<g opacity="0.4">
<rect width="164" height="32" rx="16" fill="url(#paint0_linear_389_1843)"/>
<path d="M36.1631 20.096C35.9711 20.096 35.8151 20.052 35.6951 19.964C35.5831 19.876 35.5151 19.76 35.4911 19.616C35.4671 19.464 35.4951 19.296 35.5751 19.112L38.7431 12.092C38.8471 11.86 38.9711 11.696 39.1151 11.6C39.2671 11.496 39.4391 11.444 39.6311 11.444C39.8151 11.444 39.9791 11.496 40.1231 11.6C40.2751 11.696 40.4031 11.86 40.5071 12.092L43.6871 19.112C43.7751 19.296 43.8071 19.464 43.7831 19.616C43.7591 19.768 43.6911 19.888 43.5791 19.976C43.4671 20.056 43.3191 20.096 43.1351 20.096C42.9111 20.096 42.7351 20.044 42.6071 19.94C42.4871 19.828 42.3791 19.66 42.2831 19.436L41.5031 17.624L42.1511 18.044H37.0871L37.7351 17.624L36.9671 19.436C36.8631 19.668 36.7551 19.836 36.6431 19.94C36.5311 20.044 36.3711 20.096 36.1631 20.096ZM39.6071 13.208L37.9271 17.204L37.6151 16.82H41.6231L41.3231 17.204L39.6311 13.208H39.6071ZM46.8222 20.12C46.3102 20.12 45.8582 19.996 45.4662 19.748C45.0822 19.5 44.7822 19.148 44.5662 18.692C44.3502 18.228 44.2422 17.684 44.2422 17.06C44.2422 16.428 44.3502 15.888 44.5662 15.44C44.7822 14.984 45.0822 14.632 45.4662 14.384C45.8582 14.136 46.3102 14.012 46.8222 14.012C47.3102 14.012 47.7342 14.132 48.0942 14.372C48.4622 14.612 48.7102 14.928 48.8382 15.32H48.7062V12.2C48.7062 11.952 48.7702 11.764 48.8982 11.636C49.0262 11.508 49.2102 11.444 49.4502 11.444C49.6902 11.444 49.8742 11.508 50.0022 11.636C50.1382 11.764 50.2062 11.952 50.2062 12.2V19.328C50.2062 19.576 50.1422 19.768 50.0142 19.904C49.8862 20.032 49.7022 20.096 49.4622 20.096C49.2222 20.096 49.0382 20.032 48.9102 19.904C48.7822 19.768 48.7182 19.576 48.7182 19.328V18.392L48.8502 18.752C48.7302 19.168 48.4862 19.5 48.1182 19.748C47.7502 19.996 47.3182 20.12 46.8222 20.12ZM47.2422 18.98C47.5382 18.98 47.7982 18.908 48.0222 18.764C48.2462 18.62 48.4182 18.408 48.5382 18.128C48.6662 17.84 48.7302 17.484 48.7302 17.06C48.7302 16.42 48.5942 15.944 48.3222 15.632C48.0502 15.312 47.6902 15.152 47.2422 15.152C46.9462 15.152 46.6862 15.224 46.4622 15.368C46.2382 15.504 46.0622 15.716 45.9342 16.004C45.8142 16.284 45.7542 16.636 45.7542 17.06C45.7542 17.692 45.8902 18.172 46.1622 18.5C46.4342 18.82 46.7942 18.98 47.2422 18.98ZM53.7775 20.12C53.2655 20.12 52.8135 19.996 52.4215 19.748C52.0375 19.5 51.7375 19.148 51.5215 18.692C51.3055 18.228 51.1975 17.684 51.1975 17.06C51.1975 16.428 51.3055 15.888 51.5215 15.44C51.7375 14.984 52.0375 14.632 52.4215 14.384C52.8135 14.136 53.2655 14.012 53.7775 14.012C54.2655 14.012 54.6895 14.132 55.0495 14.372C55.4175 14.612 55.6655 14.928 55.7935 15.32H55.6615V12.2C55.6615 11.952 55.7255 11.764 55.8535 11.636C55.9815 11.508 56.1655 11.444 56.4055 11.444C56.6455 11.444 56.8295 11.508 56.9575 11.636C57.0935 11.764 57.1615 11.952 57.1615 12.2V19.328C57.1615 19.576 57.0975 19.768 56.9695 19.904C56.8415 20.032 56.6575 20.096 56.4175 20.096C56.1775 20.096 55.9935 20.032 55.8655 19.904C55.7375 19.768 55.6735 19.576 55.6735 19.328V18.392L55.8055 18.752C55.6855 19.168 55.4415 19.5 55.0735 19.748C54.7055 19.996 54.2735 20.12 53.7775 20.12ZM54.1975 18.98C54.4935 18.98 54.7535 18.908 54.9775 18.764C55.2015 18.62 55.3735 18.408 55.4935 18.128C55.6215 17.84 55.6855 17.484 55.6855 17.06C55.6855 16.42 55.5495 15.944 55.2775 15.632C55.0055 15.312 54.6455 15.152 54.1975 15.152C53.9015 15.152 53.6415 15.224 53.4175 15.368C53.1935 15.504 53.0175 15.716 52.8895 16.004C52.7695 16.284 52.7095 16.636 52.7095 17.06C52.7095 17.692 52.8455 18.172 53.1175 18.5C53.3895 18.82 53.7495 18.98 54.1975 18.98ZM64.1826 20.12C63.6626 20.12 63.2266 20.032 62.8746 19.856C62.5306 19.68 62.2746 19.424 62.1066 19.088C61.9386 18.744 61.8546 18.32 61.8546 17.816V15.26H61.2306C61.0386 15.26 60.8906 15.212 60.7866 15.116C60.6826 15.012 60.6306 14.872 60.6306 14.696C60.6306 14.512 60.6826 14.372 60.7866 14.276C60.8906 14.18 61.0386 14.132 61.2306 14.132H61.8546V13.04C61.8546 12.792 61.9186 12.604 62.0466 12.476C62.1826 12.348 62.3706 12.284 62.6106 12.284C62.8506 12.284 63.0346 12.348 63.1626 12.476C63.2906 12.604 63.3546 12.792 63.3546 13.04V14.132H64.6266C64.8186 14.132 64.9666 14.18 65.0706 14.276C65.1746 14.372 65.2266 14.512 65.2266 14.696C65.2266 14.872 65.1746 15.012 65.0706 15.116C64.9666 15.212 64.8186 15.26 64.6266 15.26H63.3546V17.732C63.3546 18.116 63.4386 18.404 63.6066 18.596C63.7746 18.788 64.0466 18.884 64.4226 18.884C64.5586 18.884 64.6786 18.872 64.7826 18.848C64.8866 18.824 64.9786 18.808 65.0586 18.8C65.1546 18.792 65.2346 18.824 65.2986 18.896C65.3626 18.96 65.3946 19.096 65.3946 19.304C65.3946 19.464 65.3666 19.608 65.3106 19.736C65.2626 19.856 65.1706 19.94 65.0346 19.988C64.9306 20.02 64.7946 20.048 64.6266 20.072C64.4586 20.104 64.3106 20.12 64.1826 20.12ZM68.4775 20.12C67.8695 20.12 67.3415 19.996 66.8935 19.748C66.4455 19.5 66.0975 19.148 65.8495 18.692C65.6015 18.228 65.4775 17.684 65.4775 17.06C65.4775 16.588 65.5455 16.168 65.6815 15.8C65.8255 15.424 66.0295 15.104 66.2935 14.84C66.5575 14.568 66.8735 14.364 67.2415 14.228C67.6095 14.084 68.0215 14.012 68.4775 14.012C69.0855 14.012 69.6135 14.136 70.0615 14.384C70.5095 14.632 70.8575 14.984 71.1055 15.44C71.3535 15.896 71.4775 16.436 71.4775 17.06C71.4775 17.532 71.4055 17.956 71.2615 18.332C71.1255 18.708 70.9255 19.032 70.6615 19.304C70.3975 19.568 70.0815 19.772 69.7135 19.916C69.3455 20.052 68.9335 20.12 68.4775 20.12ZM68.4775 18.98C68.7735 18.98 69.0335 18.908 69.2575 18.764C69.4815 18.62 69.6535 18.408 69.7735 18.128C69.9015 17.84 69.9655 17.484 69.9655 17.06C69.9655 16.42 69.8295 15.944 69.5575 15.632C69.2855 15.312 68.9255 15.152 68.4775 15.152C68.1815 15.152 67.9215 15.224 67.6975 15.368C67.4735 15.504 67.2975 15.716 67.1695 16.004C67.0495 16.284 66.9895 16.636 66.9895 17.06C66.9895 17.692 67.1255 18.172 67.3975 18.5C67.6695 18.82 68.0295 18.98 68.4775 18.98ZM76.2374 22.256C75.9974 22.256 75.8134 22.192 75.6854 22.064C75.5574 21.936 75.4934 21.748 75.4934 21.5V14.792C75.4934 14.544 75.5574 14.356 75.6854 14.228C75.8134 14.1 75.9934 14.036 76.2254 14.036C76.4654 14.036 76.6494 14.1 76.7774 14.228C76.9054 14.356 76.9694 14.544 76.9694 14.792V15.728L76.8374 15.368C76.9574 14.96 77.2014 14.632 77.5694 14.384C77.9454 14.136 78.3814 14.012 78.8774 14.012C79.3894 14.012 79.8374 14.136 80.2214 14.384C80.6134 14.632 80.9174 14.984 81.1334 15.44C81.3494 15.888 81.4574 16.428 81.4574 17.06C81.4574 17.684 81.3494 18.228 81.1334 18.692C80.9174 19.148 80.6174 19.5 80.2334 19.748C79.8494 19.996 79.3974 20.12 78.8774 20.12C78.3894 20.12 77.9614 20 77.5934 19.76C77.2254 19.512 76.9774 19.192 76.8494 18.8H76.9934V21.5C76.9934 21.748 76.9254 21.936 76.7894 22.064C76.6614 22.192 76.4774 22.256 76.2374 22.256ZM78.4574 18.98C78.7534 18.98 79.0134 18.908 79.2374 18.764C79.4614 18.62 79.6334 18.408 79.7534 18.128C79.8814 17.84 79.9454 17.484 79.9454 17.06C79.9454 16.42 79.8094 15.944 79.5374 15.632C79.2654 15.312 78.9054 15.152 78.4574 15.152C78.1614 15.152 77.9014 15.224 77.6774 15.368C77.4534 15.504 77.2774 15.716 77.1494 16.004C77.0294 16.284 76.9694 16.636 76.9694 17.06C76.9694 17.692 77.1054 18.172 77.3774 18.5C77.6494 18.82 78.0094 18.98 78.4574 18.98ZM84.3807 20.12C83.9567 20.12 83.5767 20.04 83.2407 19.88C82.9127 19.712 82.6527 19.488 82.4607 19.208C82.2767 18.928 82.1847 18.612 82.1847 18.26C82.1847 17.828 82.2967 17.488 82.5207 17.24C82.7447 16.984 83.1087 16.8 83.6127 16.688C84.1167 16.576 84.7927 16.52 85.6407 16.52H86.2407V17.384H85.6527C85.1567 17.384 84.7607 17.408 84.4647 17.456C84.1687 17.504 83.9567 17.588 83.8287 17.708C83.7087 17.82 83.6487 17.98 83.6487 18.188C83.6487 18.452 83.7407 18.668 83.9247 18.836C84.1087 19.004 84.3647 19.088 84.6927 19.088C84.9567 19.088 85.1887 19.028 85.3887 18.908C85.5967 18.78 85.7607 18.608 85.8807 18.392C86.0007 18.176 86.0607 17.928 86.0607 17.648V16.268C86.0607 15.868 85.9727 15.58 85.7967 15.404C85.6207 15.228 85.3247 15.14 84.9087 15.14C84.6767 15.14 84.4247 15.168 84.1527 15.224C83.8887 15.28 83.6087 15.376 83.3127 15.512C83.1607 15.584 83.0247 15.604 82.9047 15.572C82.7927 15.54 82.7047 15.476 82.6407 15.38C82.5767 15.276 82.5447 15.164 82.5447 15.044C82.5447 14.924 82.5767 14.808 82.6407 14.696C82.7047 14.576 82.8127 14.488 82.9647 14.432C83.3327 14.28 83.6847 14.172 84.0207 14.108C84.3647 14.044 84.6767 14.012 84.9567 14.012C85.5327 14.012 86.0047 14.1 86.3727 14.276C86.7487 14.452 87.0287 14.72 87.2127 15.08C87.3967 15.432 87.4887 15.888 87.4887 16.448V19.328C87.4887 19.576 87.4287 19.768 87.3087 19.904C87.1887 20.032 87.0167 20.096 86.7927 20.096C86.5687 20.096 86.3927 20.032 86.2647 19.904C86.1447 19.768 86.0847 19.576 86.0847 19.328V18.752H86.1807C86.1247 19.032 86.0127 19.276 85.8447 19.484C85.6847 19.684 85.4807 19.84 85.2327 19.952C84.9847 20.064 84.7007 20.12 84.3807 20.12ZM91.4832 20.12C90.8672 20.12 90.3312 19.996 89.8752 19.748C89.4192 19.492 89.0672 19.132 88.8192 18.668C88.5712 18.204 88.4472 17.66 88.4472 17.036C88.4472 16.564 88.5152 16.144 88.6512 15.776C88.7952 15.4 88.9992 15.084 89.2632 14.828C89.5272 14.564 89.8472 14.364 90.2232 14.228C90.5992 14.084 91.0192 14.012 91.4832 14.012C91.7472 14.012 92.0312 14.048 92.3352 14.12C92.6472 14.192 92.9392 14.312 93.2112 14.48C93.3392 14.56 93.4232 14.656 93.4632 14.768C93.5032 14.88 93.5112 14.996 93.4872 15.116C93.4632 15.228 93.4112 15.328 93.3312 15.416C93.2592 15.496 93.1672 15.548 93.0552 15.572C92.9432 15.588 92.8192 15.56 92.6832 15.488C92.5072 15.384 92.3272 15.308 92.1432 15.26C91.9592 15.204 91.7832 15.176 91.6152 15.176C91.3512 15.176 91.1192 15.22 90.9192 15.308C90.7192 15.388 90.5472 15.508 90.4032 15.668C90.2672 15.82 90.1632 16.012 90.0912 16.244C90.0192 16.476 89.9832 16.744 89.9832 17.048C89.9832 17.64 90.1232 18.108 90.4032 18.452C90.6912 18.788 91.0952 18.956 91.6152 18.956C91.7832 18.956 91.9552 18.932 92.1312 18.884C92.3152 18.836 92.4992 18.76 92.6832 18.656C92.8192 18.584 92.9392 18.56 93.0432 18.584C93.1552 18.608 93.2472 18.664 93.3192 18.752C93.3912 18.832 93.4352 18.932 93.4512 19.052C93.4672 19.164 93.4512 19.276 93.4032 19.388C93.3632 19.5 93.2832 19.592 93.1632 19.664C92.8992 19.824 92.6192 19.94 92.3232 20.012C92.0272 20.084 91.7472 20.12 91.4832 20.12ZM94.9353 20.096C94.6953 20.096 94.5113 20.032 94.3833 19.904C94.2553 19.768 94.1913 19.576 94.1913 19.328V12.2C94.1913 11.952 94.2553 11.764 94.3833 11.636C94.5113 11.508 94.6953 11.444 94.9353 11.444C95.1753 11.444 95.3593 11.508 95.4873 11.636C95.6233 11.764 95.6913 11.952 95.6913 12.2V16.628H95.7153L97.6953 14.54C97.8553 14.38 97.9953 14.256 98.1153 14.168C98.2353 14.08 98.3993 14.036 98.6073 14.036C98.8153 14.036 98.9713 14.092 99.0753 14.204C99.1873 14.308 99.2433 14.436 99.2433 14.588C99.2433 14.74 99.1713 14.892 99.0273 15.044L96.9393 17.252V16.628L99.2313 19.1C99.3753 19.252 99.4393 19.408 99.4233 19.568C99.4153 19.72 99.3513 19.848 99.2313 19.952C99.1113 20.048 98.9593 20.096 98.7753 20.096C98.5513 20.096 98.3713 20.052 98.2353 19.964C98.1073 19.876 97.9633 19.744 97.8033 19.568L95.7153 17.384H95.6913V19.328C95.6913 19.84 95.4393 20.096 94.9353 20.096Z" fill="white"/>
<path d="M128.929 17.5714H123.571V22.9286C123.571 23.2127 123.459 23.4853 123.258 23.6862C123.057 23.8871 122.784 24 122.5 24C122.216 24 121.943 23.8871 121.742 23.6862C121.541 23.4853 121.429 23.2127 121.429 22.9286V17.5714H116.071C115.787 17.5714 115.515 17.4585 115.314 17.2576C115.113 17.0567 115 16.7842 115 16.5C115 16.2158 115.113 15.9433 115.314 15.7424C115.515 15.5415 115.787 15.4286 116.071 15.4286H121.429V10.0714C121.429 9.78727 121.541 9.51475 121.742 9.31381C121.943 9.11288 122.216 9 122.5 9C122.784 9 123.057 9.11288 123.258 9.31381C123.459 9.51475 123.571 9.78727 123.571 10.0714V15.4286H128.929C129.213 15.4286 129.485 15.5415 129.686 15.7424C129.887 15.9433 130 16.2158 130 16.5C130 16.7842 129.887 17.0567 129.686 17.2576C129.485 17.4585 129.213 17.5714 128.929 17.5714Z" fill="white"/>
</g>
<defs>
<linearGradient id="paint0_linear_389_1843" x1="-6.91875" y1="6.00002" x2="175.231" y2="18.6551" gradientUnits="userSpaceOnUse">
<stop stop-color="#DE225B"/>
<stop offset="1" stop-color="#E46D39"/>
</linearGradient>
</defs>
</svg>
