<svg width="94" height="12" viewBox="0 0 94 12" fill="none" xmlns="http://www.w3.org/2000/svg">
<path d="M3.926 9.084C3.726 9.084 3.57 9.028 3.458 8.916C3.354 8.804 3.302 8.644 3.302 8.436V4.632L3.578 5.424L0.614001 1.308C0.526001 1.188 0.486001 1.064 0.494001 0.935999C0.502001 0.8 0.554001 0.688 0.650001 0.599999C0.754001 0.504 0.890001 0.456 1.058 0.456C1.186 0.456 1.302 0.488 1.406 0.551999C1.518 0.615999 1.622 0.716 1.718 0.852L4.094 4.152H3.806L6.182 0.852C6.286 0.708 6.386 0.608 6.482 0.551999C6.578 0.488 6.698 0.456 6.842 0.456C7.01 0.456 7.138 0.5 7.226 0.588C7.322 0.668 7.37 0.776 7.37 0.912C7.378 1.04 7.33 1.176 7.226 1.32L4.286 5.424L4.538 4.632V8.436C4.538 8.868 4.334 9.084 3.926 9.084ZM9.75069 9.108C9.15869 9.108 8.64669 8.984 8.21469 8.736C7.79069 8.488 7.45869 8.136 7.21869 7.68C6.97869 7.224 6.85869 6.688 6.85869 6.072C6.85869 5.6 6.92669 5.18 7.06269 4.812C7.19869 4.444 7.39069 4.128 7.63869 3.864C7.89469 3.592 8.19869 3.388 8.55069 3.252C8.91069 3.108 9.31069 3.036 9.75069 3.036C10.3347 3.036 10.8387 3.16 11.2627 3.408C11.6947 3.656 12.0307 4.008 12.2707 4.464C12.5107 4.912 12.6307 5.448 12.6307 6.072C12.6307 6.536 12.5627 6.956 12.4267 7.332C12.2907 7.708 12.0947 8.028 11.8387 8.292C11.5907 8.556 11.2867 8.76 10.9267 8.904C10.5747 9.04 10.1827 9.108 9.75069 9.108ZM9.75069 8.172C10.0787 8.172 10.3667 8.092 10.6147 7.932C10.8627 7.772 11.0547 7.536 11.1907 7.224C11.3347 6.912 11.4067 6.528 11.4067 6.072C11.4067 5.384 11.2547 4.864 10.9507 4.512C10.6467 4.16 10.2467 3.984 9.75069 3.984C9.41469 3.984 9.12269 4.064 8.87469 4.224C8.62669 4.376 8.43069 4.608 8.28669 4.92C8.15069 5.232 8.08269 5.616 8.08269 6.072C8.08269 6.752 8.23469 7.272 8.53869 7.632C8.84269 7.992 9.24669 8.172 9.75069 8.172ZM15.8398 9.108C15.3678 9.108 14.9718 9.02 14.6518 8.844C14.3398 8.668 14.1038 8.408 13.9438 8.064C13.7918 7.712 13.7158 7.272 13.7158 6.744V3.672C13.7158 3.464 13.7678 3.312 13.8718 3.216C13.9758 3.112 14.1238 3.06 14.3158 3.06C14.5078 3.06 14.6558 3.112 14.7598 3.216C14.8718 3.312 14.9278 3.464 14.9278 3.672V6.756C14.9278 7.228 15.0238 7.576 15.2158 7.8C15.4078 8.024 15.7118 8.136 16.1278 8.136C16.5838 8.136 16.9518 7.984 17.2318 7.68C17.5198 7.368 17.6638 6.96 17.6638 6.456V3.672C17.6638 3.464 17.7158 3.312 17.8198 3.216C17.9238 3.112 18.0758 3.06 18.2758 3.06C18.4678 3.06 18.6158 3.112 18.7198 3.216C18.8238 3.312 18.8758 3.464 18.8758 3.672V8.472C18.8758 8.88 18.6798 9.084 18.2878 9.084C18.1038 9.084 17.9598 9.032 17.8558 8.928C17.7518 8.816 17.6998 8.664 17.6998 8.472V7.452L17.8558 7.716C17.6958 8.164 17.4398 8.508 17.0878 8.748C16.7358 8.988 16.3198 9.108 15.8398 9.108ZM20.9559 9.084C20.7559 9.084 20.6039 9.032 20.4999 8.928C20.3959 8.816 20.3439 8.664 20.3439 8.472V3.672C20.3439 3.472 20.3959 3.32 20.4999 3.216C20.6039 3.112 20.7479 3.06 20.9319 3.06C21.1239 3.06 21.2679 3.112 21.3639 3.216C21.4679 3.32 21.5199 3.472 21.5199 3.672V4.548H21.3999C21.5279 4.068 21.7639 3.704 22.1079 3.456C22.4519 3.208 22.8919 3.064 23.4279 3.024C23.5719 3.016 23.6839 3.052 23.7639 3.132C23.8519 3.212 23.8999 3.336 23.9079 3.504C23.9239 3.672 23.8879 3.808 23.7999 3.912C23.7119 4.008 23.5759 4.064 23.3919 4.08L23.1639 4.104C22.6439 4.152 22.2479 4.316 21.9759 4.596C21.7039 4.876 21.5679 5.26 21.5679 5.748V8.472C21.5679 8.664 21.5159 8.816 21.4119 8.928C21.3159 9.032 21.1639 9.084 20.9559 9.084ZM29.5565 9.108C29.2045 9.108 28.8405 9.068 28.4645 8.988C28.0965 8.908 27.7565 8.772 27.4445 8.58C27.3405 8.508 27.2685 8.428 27.2285 8.34C27.1885 8.252 27.1725 8.164 27.1805 8.076C27.1965 7.98 27.2325 7.9 27.2885 7.836C27.3525 7.764 27.4285 7.72 27.5165 7.704C27.6125 7.688 27.7125 7.708 27.8165 7.764C28.1285 7.94 28.4285 8.064 28.7165 8.136C29.0045 8.2 29.2885 8.232 29.5685 8.232C29.9925 8.232 30.3125 8.156 30.5285 8.004C30.7445 7.852 30.8525 7.648 30.8525 7.392C30.8525 7.184 30.7805 7.024 30.6365 6.912C30.4925 6.792 30.2765 6.7 29.9885 6.636L28.8485 6.408C28.3525 6.304 27.9765 6.12 27.7205 5.856C27.4645 5.592 27.3365 5.256 27.3365 4.848C27.3365 4.48 27.4365 4.16 27.6365 3.888C27.8365 3.616 28.1165 3.408 28.4765 3.264C28.8365 3.112 29.2525 3.036 29.7245 3.036C30.0765 3.036 30.4085 3.08 30.7205 3.168C31.0325 3.256 31.3205 3.388 31.5845 3.564C31.6885 3.62 31.7565 3.696 31.7885 3.792C31.8205 3.88 31.8245 3.968 31.8005 4.056C31.7845 4.144 31.7445 4.224 31.6805 4.296C31.6165 4.36 31.5365 4.4 31.4405 4.416C31.3525 4.424 31.2525 4.4 31.1405 4.344C30.9005 4.192 30.6605 4.084 30.4205 4.02C30.1885 3.956 29.9565 3.924 29.7245 3.924C29.3005 3.924 28.9805 4.004 28.7645 4.164C28.5565 4.316 28.4525 4.524 28.4525 4.788C28.4525 4.988 28.5165 5.152 28.6445 5.28C28.7725 5.408 28.9725 5.5 29.2445 5.556L30.3845 5.784C30.9045 5.888 31.2965 6.064 31.5605 6.312C31.8325 6.56 31.9685 6.896 31.9685 7.32C31.9685 7.872 31.7485 8.308 31.3085 8.628C30.8685 8.948 30.2845 9.108 29.5565 9.108ZM35.5144 9.108C35.0344 9.108 34.6304 9.024 34.3024 8.856C33.9744 8.688 33.7304 8.44 33.5704 8.112C33.4104 7.784 33.3304 7.384 33.3304 6.912V4.08H32.6104C32.4504 4.08 32.3264 4.04 32.2384 3.96C32.1504 3.872 32.1064 3.756 32.1064 3.612C32.1064 3.46 32.1504 3.344 32.2384 3.264C32.3264 3.184 32.4504 3.144 32.6104 3.144H33.3304V1.908C33.3304 1.708 33.3824 1.556 33.4864 1.452C33.5984 1.348 33.7504 1.296 33.9424 1.296C34.1344 1.296 34.2824 1.348 34.3864 1.452C34.4904 1.556 34.5424 1.708 34.5424 1.908V3.144H35.9464C36.1064 3.144 36.2304 3.184 36.3184 3.264C36.4064 3.344 36.4504 3.46 36.4504 3.612C36.4504 3.756 36.4064 3.872 36.3184 3.96C36.2304 4.04 36.1064 4.08 35.9464 4.08H34.5424V6.816C34.5424 7.24 34.6304 7.56 34.8064 7.776C34.9904 7.992 35.2864 8.1 35.6944 8.1C35.8384 8.1 35.9624 8.088 36.0664 8.064C36.1784 8.032 36.2704 8.012 36.3424 8.004C36.4304 8.004 36.5024 8.036 36.5584 8.1C36.6144 8.156 36.6424 8.268 36.6424 8.436C36.6424 8.556 36.6184 8.668 36.5704 8.772C36.5304 8.876 36.4544 8.944 36.3424 8.976C36.2464 9.008 36.1144 9.036 35.9464 9.06C35.7864 9.092 35.6424 9.108 35.5144 9.108ZM37.8667 9.072C37.6747 9.072 37.5267 9.016 37.4227 8.904C37.3187 8.784 37.2667 8.62 37.2667 8.412V3.732C37.2667 3.524 37.3187 3.364 37.4227 3.252C37.5267 3.14 37.6747 3.084 37.8667 3.084C38.0587 3.084 38.2067 3.14 38.3107 3.252C38.4227 3.364 38.4787 3.524 38.4787 3.732V8.412C38.4787 8.62 38.4267 8.784 38.3227 8.904C38.2187 9.016 38.0667 9.072 37.8667 9.072ZM37.8667 1.836C37.6267 1.836 37.4387 1.776 37.3027 1.656C37.1747 1.536 37.1107 1.368 37.1107 1.152C37.1107 0.927999 37.1747 0.76 37.3027 0.648C37.4387 0.528 37.6267 0.468 37.8667 0.468C38.1067 0.468 38.2907 0.528 38.4187 0.648C38.5547 0.76 38.6227 0.927999 38.6227 1.152C38.6227 1.368 38.5547 1.536 38.4187 1.656C38.2907 1.776 38.1067 1.836 37.8667 1.836ZM42.5247 9.108C41.9247 9.108 41.4047 8.984 40.9647 8.736C40.5327 8.48 40.1967 8.124 39.9567 7.668C39.7167 7.204 39.5967 6.66 39.5967 6.036C39.5967 5.572 39.6647 5.156 39.8007 4.788C39.9367 4.412 40.1287 4.096 40.3767 3.84C40.6327 3.584 40.9407 3.388 41.3007 3.252C41.6687 3.108 42.0767 3.036 42.5247 3.036C42.8047 3.036 43.0967 3.08 43.4007 3.168C43.7127 3.248 44.0007 3.384 44.2647 3.576C44.3687 3.64 44.4327 3.72 44.4567 3.816C44.4887 3.904 44.4927 3.996 44.4687 4.092C44.4527 4.188 44.4087 4.272 44.3367 4.344C44.2727 4.408 44.1927 4.448 44.0967 4.464C44.0007 4.472 43.8967 4.444 43.7847 4.38C43.5927 4.244 43.3967 4.148 43.1967 4.092C42.9967 4.028 42.8047 3.996 42.6207 3.996C42.3327 3.996 42.0767 4.044 41.8527 4.14C41.6367 4.228 41.4527 4.36 41.3007 4.536C41.1487 4.704 41.0327 4.916 40.9527 5.172C40.8807 5.428 40.8447 5.72 40.8447 6.048C40.8447 6.704 40.9967 7.22 41.3007 7.596C41.6127 7.964 42.0527 8.148 42.6207 8.148C42.8047 8.148 42.9967 8.12 43.1967 8.064C43.3967 8.008 43.5927 7.912 43.7847 7.776C43.8967 7.712 44.0007 7.688 44.0967 7.704C44.1927 7.72 44.2687 7.764 44.3247 7.836C44.3887 7.9 44.4287 7.98 44.4447 8.076C44.4687 8.164 44.4647 8.256 44.4327 8.352C44.4007 8.448 44.3327 8.528 44.2287 8.592C43.9727 8.776 43.6927 8.908 43.3887 8.988C43.0927 9.068 42.8047 9.108 42.5247 9.108ZM45.9062 9.084C45.7142 9.084 45.5662 9.032 45.4622 8.928C45.3582 8.816 45.3062 8.664 45.3062 8.472V1.068C45.3062 0.868 45.3582 0.715999 45.4622 0.611999C45.5662 0.508 45.7142 0.456 45.9062 0.456C46.0982 0.456 46.2462 0.508 46.3502 0.611999C46.4622 0.715999 46.5182 0.868 46.5182 1.068V5.7H46.5422L48.7862 3.468C48.9142 3.34 49.0302 3.24 49.1342 3.168C49.2382 3.096 49.3742 3.06 49.5422 3.06C49.7102 3.06 49.8382 3.104 49.9262 3.192C50.0142 3.28 50.0582 3.388 50.0582 3.516C50.0582 3.636 49.9982 3.76 49.8782 3.888L47.5022 6.24V5.676L50.0942 8.256C50.2222 8.384 50.2822 8.512 50.2742 8.64C50.2662 8.768 50.2142 8.876 50.1182 8.964C50.0222 9.044 49.9022 9.084 49.7582 9.084C49.5742 9.084 49.4262 9.048 49.3142 8.976C49.2102 8.904 49.0862 8.796 48.9422 8.652L46.5422 6.324H46.5182V8.472C46.5182 8.88 46.3142 9.084 45.9062 9.084ZM53.8728 9.108C53.2328 9.108 52.6808 8.988 52.2168 8.748C51.7608 8.5 51.4048 8.152 51.1488 7.704C50.9008 7.248 50.7768 6.708 50.7768 6.084C50.7768 5.476 50.9008 4.944 51.1488 4.488C51.3968 4.032 51.7368 3.676 52.1688 3.42C52.6008 3.164 53.0928 3.036 53.6448 3.036C54.0528 3.036 54.4168 3.104 54.7368 3.24C55.0568 3.368 55.3288 3.56 55.5528 3.816C55.7848 4.064 55.9568 4.368 56.0688 4.728C56.1888 5.088 56.2488 5.492 56.2488 5.94C56.2488 6.076 56.2088 6.18 56.1288 6.252C56.0488 6.316 55.9288 6.348 55.7688 6.348H51.7368V5.604H55.4328L55.2288 5.772C55.2288 5.372 55.1688 5.032 55.0488 4.752C54.9368 4.472 54.7648 4.26 54.5328 4.116C54.3088 3.964 54.0288 3.888 53.6928 3.888C53.3168 3.888 52.9968 3.976 52.7328 4.152C52.4768 4.328 52.2808 4.572 52.1448 4.884C52.0088 5.196 51.9408 5.56 51.9408 5.976V6.048C51.9408 6.752 52.1048 7.284 52.4328 7.644C52.7688 7.996 53.2528 8.172 53.8848 8.172C54.1248 8.172 54.3768 8.14 54.6408 8.076C54.9128 8.012 55.1688 7.904 55.4088 7.752C55.5448 7.672 55.6648 7.636 55.7688 7.644C55.8808 7.652 55.9688 7.688 56.0328 7.752C56.1048 7.816 56.1488 7.896 56.1648 7.992C56.1808 8.088 56.1648 8.188 56.1168 8.292C56.0688 8.388 55.9848 8.476 55.8648 8.556C55.5928 8.74 55.2768 8.88 54.9168 8.976C54.5568 9.064 54.2088 9.108 53.8728 9.108ZM57.9421 9.084C57.7421 9.084 57.5901 9.032 57.4861 8.928C57.3821 8.816 57.3301 8.664 57.3301 8.472V3.672C57.3301 3.472 57.3821 3.32 57.4861 3.216C57.5901 3.112 57.7341 3.06 57.9181 3.06C58.1101 3.06 58.2541 3.112 58.3501 3.216C58.4541 3.32 58.5061 3.472 58.5061 3.672V4.548H58.3861C58.5141 4.068 58.7501 3.704 59.0941 3.456C59.4381 3.208 59.8781 3.064 60.4141 3.024C60.5581 3.016 60.6701 3.052 60.7501 3.132C60.8381 3.212 60.8861 3.336 60.8941 3.504C60.9101 3.672 60.8741 3.808 60.7861 3.912C60.6981 4.008 60.5621 4.064 60.3781 4.08L60.1501 4.104C59.6301 4.152 59.2341 4.316 58.9621 4.596C58.6901 4.876 58.5541 5.26 58.5541 5.748V8.472C58.5541 8.664 58.5021 8.816 58.3981 8.928C58.3021 9.032 58.1501 9.084 57.9421 9.084ZM65.0908 11.244C64.8988 11.244 64.7508 11.192 64.6468 11.088C64.5428 10.984 64.4908 10.832 64.4908 10.632V3.672C64.4908 3.472 64.5428 3.32 64.6468 3.216C64.7508 3.112 64.8948 3.06 65.0788 3.06C65.2708 3.06 65.4188 3.112 65.5228 3.216C65.6268 3.32 65.6788 3.472 65.6788 3.672V4.716L65.5468 4.464C65.6748 4.032 65.9268 3.688 66.3028 3.432C66.6788 3.168 67.1228 3.036 67.6348 3.036C68.1548 3.036 68.6068 3.16 68.9908 3.408C69.3828 3.656 69.6828 4.004 69.8908 4.452C70.1068 4.9 70.2148 5.44 70.2148 6.072C70.2148 6.688 70.1068 7.228 69.8908 7.692C69.6828 8.148 69.3868 8.5 69.0028 8.748C68.6188 8.988 68.1628 9.108 67.6348 9.108C67.1308 9.108 66.6908 8.98 66.3148 8.724C65.9388 8.468 65.6868 8.128 65.5588 7.704H65.7028V10.632C65.7028 10.832 65.6468 10.984 65.5348 11.088C65.4308 11.192 65.2828 11.244 65.0908 11.244ZM67.3348 8.172C67.6708 8.172 67.9628 8.092 68.2108 7.932C68.4588 7.772 68.6508 7.536 68.7868 7.224C68.9228 6.912 68.9908 6.528 68.9908 6.072C68.9908 5.384 68.8388 4.864 68.5348 4.512C68.2388 4.16 67.8388 3.984 67.3348 3.984C67.0068 3.984 66.7148 4.064 66.4588 4.224C66.2108 4.376 66.0188 4.608 65.8828 4.92C65.7468 5.232 65.6788 5.616 65.6788 6.072C65.6788 6.752 65.8308 7.272 66.1348 7.632C66.4388 7.992 66.8388 8.172 67.3348 8.172ZM73.2126 9.108C72.8046 9.108 72.4366 9.028 72.1086 8.868C71.7886 8.708 71.5366 8.492 71.3526 8.22C71.1686 7.948 71.0766 7.64 71.0766 7.296C71.0766 6.864 71.1846 6.524 71.4006 6.276C71.6246 6.02 71.9886 5.84 72.4926 5.736C73.0046 5.624 73.6926 5.568 74.5566 5.568H75.1206V6.312H74.5686C73.9926 6.312 73.5366 6.34 73.2006 6.396C72.8646 6.452 72.6246 6.548 72.4806 6.684C72.3446 6.812 72.2766 6.992 72.2766 7.224C72.2766 7.528 72.3806 7.776 72.5886 7.968C72.7966 8.152 73.0846 8.244 73.4526 8.244C73.7486 8.244 74.0086 8.176 74.2326 8.04C74.4566 7.896 74.6326 7.704 74.7606 7.464C74.8966 7.224 74.9646 6.948 74.9646 6.636V5.256C74.9646 4.8 74.8686 4.472 74.6766 4.272C74.4846 4.072 74.1686 3.972 73.7286 3.972C73.4726 3.972 73.2046 4.004 72.9246 4.068C72.6526 4.132 72.3686 4.24 72.0726 4.392C71.9366 4.456 71.8206 4.476 71.7246 4.452C71.6286 4.428 71.5526 4.376 71.4966 4.296C71.4406 4.208 71.4086 4.116 71.4006 4.02C71.4006 3.916 71.4246 3.816 71.4726 3.72C71.5286 3.624 71.6206 3.552 71.7486 3.504C72.1006 3.336 72.4486 3.216 72.7926 3.144C73.1366 3.072 73.4606 3.036 73.7646 3.036C74.3006 3.036 74.7406 3.12 75.0846 3.288C75.4366 3.456 75.6966 3.712 75.8646 4.056C76.0326 4.4 76.1166 4.844 76.1166 5.388V8.472C76.1166 8.664 76.0686 8.816 75.9726 8.928C75.8766 9.032 75.7366 9.084 75.5526 9.084C75.3766 9.084 75.2366 9.032 75.1326 8.928C75.0286 8.816 74.9766 8.664 74.9766 8.472V7.692H75.0846C75.0206 7.988 74.9006 8.244 74.7246 8.46C74.5566 8.668 74.3446 8.828 74.0886 8.94C73.8326 9.052 73.5406 9.108 73.2126 9.108ZM80.1259 9.108C79.5259 9.108 79.0059 8.984 78.5659 8.736C78.1339 8.48 77.7979 8.124 77.5579 7.668C77.3179 7.204 77.1979 6.66 77.1979 6.036C77.1979 5.572 77.2659 5.156 77.4019 4.788C77.5379 4.412 77.7299 4.096 77.9779 3.84C78.2339 3.584 78.5419 3.388 78.9019 3.252C79.2699 3.108 79.6779 3.036 80.1259 3.036C80.4059 3.036 80.6979 3.08 81.0019 3.168C81.3139 3.248 81.6019 3.384 81.8659 3.576C81.9699 3.64 82.0339 3.72 82.0579 3.816C82.0899 3.904 82.0939 3.996 82.0699 4.092C82.0539 4.188 82.0099 4.272 81.9379 4.344C81.8739 4.408 81.7939 4.448 81.6979 4.464C81.6019 4.472 81.4979 4.444 81.3859 4.38C81.1939 4.244 80.9979 4.148 80.7979 4.092C80.5979 4.028 80.4059 3.996 80.2219 3.996C79.9339 3.996 79.6779 4.044 79.4539 4.14C79.2379 4.228 79.0539 4.36 78.9019 4.536C78.7499 4.704 78.6339 4.916 78.5539 5.172C78.4819 5.428 78.4459 5.72 78.4459 6.048C78.4459 6.704 78.5979 7.22 78.9019 7.596C79.2139 7.964 79.6539 8.148 80.2219 8.148C80.4059 8.148 80.5979 8.12 80.7979 8.064C80.9979 8.008 81.1939 7.912 81.3859 7.776C81.4979 7.712 81.6019 7.688 81.6979 7.704C81.7939 7.72 81.8699 7.764 81.9259 7.836C81.9899 7.9 82.0299 7.98 82.0459 8.076C82.0699 8.164 82.0659 8.256 82.0339 8.352C82.0019 8.448 81.9339 8.528 81.8299 8.592C81.5739 8.776 81.2939 8.908 80.9899 8.988C80.6939 9.068 80.4059 9.108 80.1259 9.108ZM83.5075 9.084C83.3155 9.084 83.1675 9.032 83.0635 8.928C82.9595 8.816 82.9075 8.664 82.9075 8.472V1.068C82.9075 0.868 82.9595 0.715999 83.0635 0.611999C83.1675 0.508 83.3155 0.456 83.5075 0.456C83.6995 0.456 83.8475 0.508 83.9515 0.611999C84.0635 0.715999 84.1195 0.868 84.1195 1.068V5.7H84.1435L86.3875 3.468C86.5155 3.34 86.6315 3.24 86.7355 3.168C86.8395 3.096 86.9755 3.06 87.1435 3.06C87.3115 3.06 87.4395 3.104 87.5275 3.192C87.6155 3.28 87.6595 3.388 87.6595 3.516C87.6595 3.636 87.5995 3.76 87.4795 3.888L85.1035 6.24V5.676L87.6955 8.256C87.8235 8.384 87.8835 8.512 87.8755 8.64C87.8675 8.768 87.8155 8.876 87.7195 8.964C87.6235 9.044 87.5035 9.084 87.3595 9.084C87.1755 9.084 87.0275 9.048 86.9155 8.976C86.8115 8.904 86.6875 8.796 86.5435 8.652L84.1435 6.324H84.1195V8.472C84.1195 8.88 83.9155 9.084 83.5075 9.084ZM90.8015 9.108C90.4495 9.108 90.0855 9.068 89.7095 8.988C89.3415 8.908 89.0015 8.772 88.6895 8.58C88.5855 8.508 88.5135 8.428 88.4735 8.34C88.4335 8.252 88.4175 8.164 88.4255 8.076C88.4415 7.98 88.4775 7.9 88.5335 7.836C88.5975 7.764 88.6735 7.72 88.7615 7.704C88.8575 7.688 88.9575 7.708 89.0615 7.764C89.3735 7.94 89.6735 8.064 89.9615 8.136C90.2495 8.2 90.5335 8.232 90.8135 8.232C91.2375 8.232 91.5575 8.156 91.7735 8.004C91.9895 7.852 92.0975 7.648 92.0975 7.392C92.0975 7.184 92.0255 7.024 91.8815 6.912C91.7375 6.792 91.5215 6.7 91.2335 6.636L90.0935 6.408C89.5975 6.304 89.2215 6.12 88.9655 5.856C88.7095 5.592 88.5815 5.256 88.5815 4.848C88.5815 4.48 88.6815 4.16 88.8815 3.888C89.0815 3.616 89.3615 3.408 89.7215 3.264C90.0815 3.112 90.4975 3.036 90.9695 3.036C91.3215 3.036 91.6535 3.08 91.9655 3.168C92.2775 3.256 92.5655 3.388 92.8295 3.564C92.9335 3.62 93.0015 3.696 93.0335 3.792C93.0655 3.88 93.0695 3.968 93.0455 4.056C93.0295 4.144 92.9895 4.224 92.9255 4.296C92.8615 4.36 92.7815 4.4 92.6855 4.416C92.5975 4.424 92.4975 4.4 92.3855 4.344C92.1455 4.192 91.9055 4.084 91.6655 4.02C91.4335 3.956 91.2015 3.924 90.9695 3.924C90.5455 3.924 90.2255 4.004 90.0095 4.164C89.8015 4.316 89.6975 4.524 89.6975 4.788C89.6975 4.988 89.7615 5.152 89.8895 5.28C90.0175 5.408 90.2175 5.5 90.4895 5.556L91.6295 5.784C92.1495 5.888 92.5415 6.064 92.8055 6.312C93.0775 6.56 93.2135 6.896 93.2135 7.32C93.2135 7.872 92.9935 8.308 92.5535 8.628C92.1135 8.948 91.5295 9.108 90.8015 9.108Z" fill="url(#paint0_linear_389_1599)"/>
<defs>
<linearGradient id="paint0_linear_389_1599" x1="-3.96563" y1="8.20907e-06" x2="100.28" y2="8.30251" gradientUnits="userSpaceOnUse">
<stop stop-color="#DE225B"/>
<stop offset="1" stop-color="#E46D39"/>
</linearGradient>
</defs>
</svg>
