<svg width="80" height="32" viewBox="0 0 80 32" fill="none" xmlns="http://www.w3.org/2000/svg">
<path d="M31.3055 20.12C30.9535 20.12 30.6015 20.092 30.2495 20.036C29.8975 19.988 29.5655 19.912 29.2535 19.808C28.9415 19.696 28.6615 19.56 28.4135 19.4C28.2695 19.304 28.1695 19.188 28.1135 19.052C28.0575 18.916 28.0375 18.784 28.0535 18.656C28.0775 18.52 28.1295 18.404 28.2095 18.308C28.2975 18.204 28.4055 18.14 28.5335 18.116C28.6615 18.092 28.8015 18.128 28.9535 18.224C29.3055 18.432 29.6775 18.584 30.0695 18.68C30.4615 18.776 30.8735 18.824 31.3055 18.824C31.9375 18.824 32.3975 18.72 32.6855 18.512C32.9735 18.296 33.1175 18.02 33.1175 17.684C33.1175 17.404 33.0135 17.184 32.8055 17.024C32.6055 16.864 32.2575 16.732 31.7615 16.628L30.4415 16.352C29.6815 16.192 29.1135 15.924 28.7375 15.548C28.3695 15.164 28.1855 14.66 28.1855 14.036C28.1855 13.644 28.2655 13.288 28.4255 12.968C28.5855 12.648 28.8095 12.372 29.0975 12.14C29.3935 11.908 29.7415 11.732 30.1415 11.612C30.5495 11.484 30.9975 11.42 31.4855 11.42C31.9655 11.42 32.4215 11.48 32.8535 11.6C33.2855 11.72 33.6735 11.896 34.0175 12.128C34.1455 12.216 34.2295 12.324 34.2695 12.452C34.3175 12.58 34.3295 12.708 34.3055 12.836C34.2815 12.956 34.2255 13.06 34.1375 13.148C34.0495 13.236 33.9375 13.288 33.8015 13.304C33.6735 13.32 33.5255 13.28 33.3575 13.184C33.0615 13.016 32.7615 12.896 32.4575 12.824C32.1535 12.752 31.8255 12.716 31.4735 12.716C31.1055 12.716 30.7895 12.768 30.5255 12.872C30.2615 12.976 30.0575 13.124 29.9135 13.316C29.7775 13.5 29.7095 13.72 29.7095 13.976C29.7095 14.264 29.8055 14.496 29.9975 14.672C30.1895 14.84 30.5175 14.972 30.9815 15.068L32.2895 15.344C33.0815 15.512 33.6695 15.776 34.0535 16.136C34.4455 16.496 34.6415 16.976 34.6415 17.576C34.6415 17.96 34.5615 18.308 34.4015 18.62C34.2495 18.932 34.0255 19.2 33.7295 19.424C33.4415 19.648 33.0935 19.82 32.6855 19.94C32.2775 20.06 31.8175 20.12 31.3055 20.12ZM37.5078 20.12C37.0838 20.12 36.7038 20.04 36.3678 19.88C36.0398 19.712 35.7798 19.488 35.5878 19.208C35.4038 18.928 35.3118 18.612 35.3118 18.26C35.3118 17.828 35.4238 17.488 35.6478 17.24C35.8718 16.984 36.2358 16.8 36.7398 16.688C37.2438 16.576 37.9198 16.52 38.7678 16.52H39.3678V17.384H38.7798C38.2838 17.384 37.8878 17.408 37.5918 17.456C37.2958 17.504 37.0838 17.588 36.9558 17.708C36.8358 17.82 36.7758 17.98 36.7758 18.188C36.7758 18.452 36.8678 18.668 37.0518 18.836C37.2358 19.004 37.4918 19.088 37.8198 19.088C38.0838 19.088 38.3158 19.028 38.5158 18.908C38.7238 18.78 38.8878 18.608 39.0078 18.392C39.1278 18.176 39.1878 17.928 39.1878 17.648V16.268C39.1878 15.868 39.0998 15.58 38.9238 15.404C38.7478 15.228 38.4518 15.14 38.0358 15.14C37.8038 15.14 37.5518 15.168 37.2798 15.224C37.0158 15.28 36.7358 15.376 36.4398 15.512C36.2878 15.584 36.1518 15.604 36.0318 15.572C35.9198 15.54 35.8318 15.476 35.7678 15.38C35.7038 15.276 35.6718 15.164 35.6718 15.044C35.6718 14.924 35.7038 14.808 35.7678 14.696C35.8318 14.576 35.9398 14.488 36.0918 14.432C36.4598 14.28 36.8118 14.172 37.1478 14.108C37.4918 14.044 37.8038 14.012 38.0838 14.012C38.6598 14.012 39.1318 14.1 39.4998 14.276C39.8758 14.452 40.1558 14.72 40.3398 15.08C40.5238 15.432 40.6158 15.888 40.6158 16.448V19.328C40.6158 19.576 40.5558 19.768 40.4358 19.904C40.3158 20.032 40.1438 20.096 39.9198 20.096C39.6958 20.096 39.5198 20.032 39.3918 19.904C39.2718 19.768 39.2118 19.576 39.2118 19.328V18.752H39.3078C39.2518 19.032 39.1398 19.276 38.9718 19.484C38.8118 19.684 38.6078 19.84 38.3598 19.952C38.1118 20.064 37.8278 20.12 37.5078 20.12ZM44.2157 20.096C44.0157 20.096 43.8397 20.044 43.6877 19.94C43.5437 19.836 43.4237 19.676 43.3277 19.46L41.4197 15.032C41.3477 14.856 41.3197 14.692 41.3357 14.54C41.3597 14.388 41.4317 14.268 41.5517 14.18C41.6797 14.084 41.8517 14.036 42.0677 14.036C42.2517 14.036 42.3997 14.08 42.5117 14.168C42.6237 14.248 42.7237 14.404 42.8117 14.636L44.4317 18.68H44.0717L45.7397 14.624C45.8277 14.4 45.9277 14.248 46.0397 14.168C46.1597 14.08 46.3197 14.036 46.5197 14.036C46.6957 14.036 46.8357 14.084 46.9397 14.18C47.0437 14.268 47.1077 14.388 47.1317 14.54C47.1557 14.684 47.1277 14.844 47.0477 15.02L45.1037 19.46C45.0157 19.676 44.8957 19.836 44.7437 19.94C44.5997 20.044 44.4237 20.096 44.2157 20.096ZM50.7026 20.12C50.0386 20.12 49.4666 19.996 48.9866 19.748C48.5066 19.5 48.1346 19.148 47.8706 18.692C47.6146 18.236 47.4866 17.696 47.4866 17.072C47.4866 16.464 47.6106 15.932 47.8586 15.476C48.1146 15.02 48.4626 14.664 48.9026 14.408C49.3506 14.144 49.8586 14.012 50.4266 14.012C50.8426 14.012 51.2146 14.08 51.5426 14.216C51.8786 14.352 52.1626 14.548 52.3946 14.804C52.6346 15.06 52.8146 15.372 52.9346 15.74C53.0626 16.1 53.1266 16.508 53.1266 16.964C53.1266 17.108 53.0746 17.22 52.9706 17.3C52.8746 17.372 52.7346 17.408 52.5506 17.408H48.6986V16.544H52.0706L51.8786 16.724C51.8786 16.356 51.8226 16.048 51.7106 15.8C51.6066 15.552 51.4506 15.364 51.2426 15.236C51.0426 15.1 50.7906 15.032 50.4866 15.032C50.1506 15.032 49.8626 15.112 49.6226 15.272C49.3906 15.424 49.2106 15.644 49.0826 15.932C48.9626 16.212 48.9026 16.548 48.9026 16.94V17.024C48.9026 17.68 49.0546 18.172 49.3586 18.5C49.6706 18.82 50.1266 18.98 50.7266 18.98C50.9346 18.98 51.1666 18.956 51.4226 18.908C51.6866 18.852 51.9346 18.76 52.1666 18.632C52.3346 18.536 52.4826 18.496 52.6106 18.512C52.7386 18.52 52.8386 18.564 52.9106 18.644C52.9906 18.724 53.0386 18.824 53.0546 18.944C53.0706 19.056 53.0466 19.172 52.9826 19.292C52.9266 19.412 52.8266 19.516 52.6826 19.604C52.4026 19.78 52.0786 19.912 51.7106 20C51.3506 20.08 51.0146 20.12 50.7026 20.12Z" fill="url(#paint0_linear_389_1579)"/>
<rect x="0.5" y="0.5" width="79" height="31" rx="15.5" stroke="url(#paint1_linear_389_1579)"/>
<defs>
<linearGradient id="paint0_linear_389_1579" x1="25.8609" y1="11" x2="55.978" y2="11.689" gradientUnits="userSpaceOnUse">
<stop stop-color="#DE225B"/>
<stop offset="1" stop-color="#E46D39"/>
</linearGradient>
<linearGradient id="paint1_linear_389_1579" x1="-3.375" y1="6.00002" x2="85.8051" y2="9.02241" gradientUnits="userSpaceOnUse">
<stop stop-color="#DE225B"/>
<stop offset="1" stop-color="#E46D39"/>
</linearGradient>
</defs>
</svg>
