<svg width="35" height="35" viewBox="0 0 35 35" fill="none" xmlns="http://www.w3.org/2000/svg">
<rect width="35" height="35" rx="17.5" fill="white" fill-opacity="0.5"/>
<g clip-path="url(#clip0_1392_2110)">
<path fill-rule="evenodd" clip-rule="evenodd" d="M17.9798 19.594C16.6398 21.373 14.4278 22.226 12.3198 21.948C9.93677 21.634 7.77377 19.898 7.02577 16.7C6.98274 16.5159 6.99275 16.3235 7.05463 16.1449C7.11652 15.9663 7.22775 15.8089 7.37542 15.6909C7.5231 15.573 7.70119 15.4993 7.88903 15.4784C8.07688 15.4575 8.2668 15.4903 8.43677 15.573C10.5298 16.589 12.4708 15.509 14.0908 14.218C14.8188 13.638 15.6258 13.355 16.4298 13.45C17.0498 13.523 17.5758 13.811 17.9798 14.211C18.3848 13.811 18.9098 13.523 19.5308 13.45C20.3348 13.355 21.1418 13.638 21.8708 14.218C23.4898 15.509 25.4308 16.589 27.5238 15.573C27.6937 15.4906 27.8835 15.458 28.0712 15.479C28.2589 15.5001 28.4367 15.5738 28.5843 15.6917C28.7318 15.8096 28.8429 15.9669 28.9047 16.1453C28.9666 16.3237 28.9767 16.516 28.9338 16.7C28.1868 19.898 26.0238 21.634 23.6408 21.948C21.5328 22.226 19.3208 21.373 17.9808 19.594H17.9798ZM16.6328 18.015C15.7928 19.443 14.1528 20.172 12.5818 19.965C11.4888 19.822 10.3838 19.213 9.64177 17.959C12.0218 18.168 14.0498 16.809 15.3378 15.782C15.7528 15.452 16.0418 15.418 16.1948 15.436C16.8088 15.508 16.9738 16.346 16.9798 16.837C16.9669 17.2529 16.8474 17.6585 16.6328 18.015ZM18.9808 16.837C18.9888 17.204 19.0898 17.611 19.3278 18.015C20.1678 19.443 21.8078 20.172 23.3798 19.965C24.4718 19.822 25.5768 19.213 26.3198 17.959C23.9378 18.168 21.9098 16.809 20.6228 15.782C20.2078 15.452 19.9188 15.418 19.7658 15.436C19.1518 15.508 18.9868 16.346 18.9798 16.837H18.9808Z" fill="white"/>
</g>
<defs>
<clipPath id="clip0_1392_2110">
<rect width="24" height="24" fill="white" transform="translate(6 6)"/>
</clipPath>
</defs>
</svg>
