<svg width="35" height="35" viewBox="0 0 35 35" fill="none" xmlns="http://www.w3.org/2000/svg">
<rect width="35" height="35" rx="17.5" fill="white" fill-opacity="0.5"/>
<path d="M15.3125 15.8594C15.3125 15.2792 15.543 14.7228 15.9532 14.3126C16.3634 13.9023 16.9198 13.6719 17.5 13.6719C18.0802 13.6719 18.6366 13.9023 19.0468 14.3126C19.457 14.7228 19.6875 15.2792 19.6875 15.8594M30.625 13.6719H31.7188M30.625 13.6719C30.625 20.2344 29.5312 22.4219 25.1562 22.4219C20.7812 22.4219 19.6875 20.2344 19.6875 13.6719C19.6875 13.6719 20.7812 12.5781 25.1562 12.5781C29.5312 12.5781 30.625 13.6719 30.625 13.6719ZM4.375 13.6719H3.28125M4.375 13.6719C4.375 20.2344 5.46875 22.4219 9.84375 22.4219C14.2188 22.4219 15.3125 20.2344 15.3125 13.6719C15.3125 13.6719 14.2188 12.5781 9.84375 12.5781C5.46875 12.5781 4.375 13.6719 4.375 13.6719Z" stroke="white" stroke-width="2" stroke-linecap="round" stroke-linejoin="round"/>
</svg>
