<svg width="35" height="35" viewBox="0 0 35 35" fill="none" xmlns="http://www.w3.org/2000/svg">
<rect width="35" height="35" rx="17.5" fill="black" fill-opacity="0.5"/>
<g clip-path="url(#clip0_1392_2087)">
<g opacity="0.7">
<path d="M11 11C11.25 12.5 11.5 13.25 11.75 15C11.95 16.4 12 18.5835 12 19.5C10.9165 20 8.5 21 8.5 23C8.5 25 11 27.5 18 27.5C25 27.5 27.5 25 27.5 23C27.5 21 24 19.5 24 19.5C24 19.5 24 16.75 24.25 15C24.5 13.25 24.75 12.5 25 11" stroke="white" stroke-width="2" stroke-linecap="round" stroke-linejoin="round"/>
<path d="M24 19.5C24 21.5 23.5 23.5 17.75 23.5" stroke="white" stroke-width="2" stroke-linecap="round" stroke-linejoin="round"/>
<path d="M18 13.5C21.866 13.5 25 12.3807 25 11C25 9.61929 21.866 8.5 18 8.5C14.134 8.5 11 9.61929 11 11C11 12.3807 14.134 13.5 18 13.5Z" stroke="white" stroke-width="2"/>
</g>
</g>
<defs>
<clipPath id="clip0_1392_2087">
<rect width="24" height="24" fill="white" transform="translate(6 6)"/>
</clipPath>
</defs>
</svg>
