<svg width="35" height="35" viewBox="0 0 35 35" fill="none" xmlns="http://www.w3.org/2000/svg">
<rect width="35" height="35" rx="17.5" fill="black" fill-opacity="0.5"/>
<path d="M18 28C17.5667 28 17.175 27.8957 16.825 27.687C16.475 27.4783 16.2 27.1993 16 26.85C15.45 26.85 14.979 26.654 14.587 26.262C14.195 25.87 13.9993 25.3993 14 24.85V21.3C13.0167 20.65 12.229 19.7917 11.637 18.725C11.045 17.6583 10.7493 16.5 10.75 15.25C10.75 13.2333 11.4543 11.5207 12.863 10.112C14.2717 8.70333 15.984 7.99933 18 8C20.0167 8 21.7293 8.70433 23.138 10.113C24.5467 11.5217 25.2507 13.234 25.25 15.25C25.25 16.5333 24.954 17.7 24.362 18.75C23.77 19.8 22.9827 20.65 22 21.3V24.85C22 25.4 21.804 25.871 21.412 26.263C21.02 26.655 20.5493 26.8507 20 26.85C19.8 27.2 19.525 27.4793 19.175 27.688C18.825 27.8967 18.4333 28.0007 18 28ZM16 24.85H20V23.95H16V24.85ZM16 22.95H20V22H16V22.95ZM15.8 20H17.25V17.3L15.05 15.1L16.1 14.05L18 15.95L19.9 14.05L20.95 15.1L18.75 17.3V20H20.2C21.1 19.5667 21.8333 18.929 22.4 18.087C22.9667 17.245 23.25 16.2993 23.25 15.25C23.25 13.7833 22.7417 12.5417 21.725 11.525C20.7083 10.5083 19.4667 10 18 10C16.5333 10 15.2917 10.5083 14.275 11.525C13.2583 12.5417 12.75 13.7833 12.75 15.25C12.75 16.3 13.0333 17.246 13.6 18.088C14.1667 18.93 14.9 19.5673 15.8 20Z" fill="white" fill-opacity="0.7"/>
</svg>
