<svg width="35" height="35" viewBox="0 0 35 35" fill="none" xmlns="http://www.w3.org/2000/svg">
<rect width="35" height="35" rx="17.5" fill="white" fill-opacity="0.5"/>
<path d="M9.77577 23.2892C6.82048 21.6121 5 18.9689 5 16.0531C5.00114 10.9864 10.4272 7 17.0006 7C23.574 7 29 10.9864 29 16.0531C29 21.1199 23.574 25.1063 17.0006 25.1063C16.4955 25.1063 15.9938 25.0826 15.4944 25.0363L11.1917 27.6838C10.4889 28.0349 10.098 28.1416 9.49464 27.7549C8.78611 27.2982 8.81353 26.7941 9.05809 26.0746L9.77577 23.2892ZM7.28561 16.0531C7.28561 18.3495 8.9061 20.4941 11.6065 21.7834L12.4134 22.1701L12.2008 22.9994L11.7425 24.7745L14.9424 22.8034L15.3595 22.853C15.9012 22.9187 16.4486 22.9521 16.9994 22.9521C22.4175 22.9521 26.7133 19.7961 26.7133 16.0531C26.7133 12.3102 22.4186 9.15423 17.0006 9.15423C11.5825 9.15423 7.28561 12.3102 7.28561 16.0531ZM23.75 15.6805L25.4802 18.0016C25.5209 18.0563 25.5498 18.118 25.5653 18.1832C25.5807 18.2484 25.5824 18.3158 25.5702 18.3817C25.558 18.4475 25.5322 18.5104 25.4942 18.5668C25.4562 18.6232 25.4067 18.672 25.3487 18.7104C25.2907 18.7488 25.2253 18.776 25.1561 18.7906C25.0869 18.8052 25.0154 18.8067 24.9455 18.7952C24.8757 18.7837 24.809 18.7594 24.7491 18.7236C24.6893 18.6877 24.6375 18.6412 24.5968 18.5865L22.9649 16.3967L22.4769 16.8416V18.3097C22.4769 18.4445 22.4201 18.5738 22.3189 18.6692C22.2177 18.7645 22.0805 18.8181 21.9375 18.8181C21.7944 18.8181 21.6572 18.7645 21.5561 18.6692C21.4549 18.5738 21.3981 18.4445 21.3981 18.3097V16.7597C21.3779 16.6812 21.3779 16.5992 21.3981 16.5206V13.7664C21.3981 13.6316 21.4549 13.5023 21.5561 13.4069C21.6572 13.3116 21.7944 13.258 21.9375 13.258C22.0805 13.258 22.2177 13.3116 22.3189 13.4069C22.4201 13.5023 22.4769 13.6316 22.4769 13.7664V15.4273L24.6802 13.4174C24.784 13.3293 24.9201 13.2825 25.0598 13.287C25.1994 13.2915 25.3318 13.3469 25.429 13.4416C25.5262 13.5362 25.5806 13.6628 25.5807 13.7945C25.5809 13.9262 25.5268 14.0528 25.4299 14.1477L23.75 15.6805ZM20.3696 17.7539C20.5126 17.7539 20.6498 17.8075 20.751 17.9028C20.8521 17.9982 20.909 18.1275 20.909 18.2623C20.909 18.3971 20.8521 18.5264 20.751 18.6218C20.6498 18.7171 20.5126 18.7707 20.3696 18.7707H18.1617C18.0188 18.7704 17.8819 18.7167 17.781 18.6214C17.6801 18.5261 17.6234 18.3969 17.6234 18.2623V13.7826C17.62 13.7139 17.6315 13.6453 17.6571 13.581C17.6826 13.5166 17.7218 13.4578 17.7721 13.4081C17.8225 13.3584 17.883 13.3188 17.9501 13.2918C18.0171 13.2647 18.0893 13.2508 18.1622 13.2508C18.2352 13.2508 18.3073 13.2647 18.3744 13.2918C18.4414 13.3188 18.502 13.3584 18.5523 13.4081C18.6027 13.4578 18.6418 13.5166 18.6674 13.581C18.693 13.6453 18.7044 13.7139 18.7011 13.7826V17.7539H20.3696ZM13.6762 16.5788H15.2007L14.4715 14.7391L13.6762 16.5788ZM16.5594 17.1033L16.9537 18.0997C16.9809 18.1627 16.9945 18.2302 16.9935 18.2982C16.9926 18.3662 16.9771 18.4334 16.9482 18.4957C16.9192 18.558 16.8772 18.6142 16.8248 18.6609C16.7723 18.7076 16.7104 18.744 16.6428 18.7678C16.5752 18.7916 16.5032 18.8023 16.4311 18.7994C16.359 18.7965 16.2882 18.78 16.223 18.7508C16.1578 18.7217 16.0995 18.6805 16.0514 18.6297C16.0034 18.5789 15.9667 18.5195 15.9435 18.4551L15.6029 17.5945H13.2373L12.8579 18.4702C12.8311 18.532 12.7917 18.5882 12.7418 18.6357C12.692 18.6831 12.6327 18.7208 12.5674 18.7467C12.5021 18.7726 12.432 18.786 12.3612 18.7864C12.2903 18.7867 12.2201 18.7739 12.1545 18.7486C12.0889 18.7234 12.0293 18.6862 11.9789 18.6392C11.9286 18.5922 11.8886 18.5364 11.8611 18.4748C11.8337 18.4132 11.8194 18.3472 11.8191 18.2804C11.8187 18.2136 11.8323 18.1475 11.8591 18.0857L13.7584 13.6964C13.8162 13.5542 13.9186 13.432 14.0519 13.346C14.1852 13.26 14.3431 13.2143 14.5047 13.2149C14.6651 13.2212 14.8196 13.2734 14.9476 13.3647C15.0757 13.4559 15.1711 13.5818 15.2212 13.7255L16.4166 16.7414C16.5096 16.8348 16.5615 16.958 16.5617 17.0861L16.5594 17.1033ZM12.7642 13.788C12.7642 14.068 12.5242 14.2964 12.2259 14.2964H10.9231V18.3205C10.9231 18.4554 10.8663 18.5849 10.765 18.6803C10.6637 18.7758 10.5264 18.8294 10.3832 18.8294C10.24 18.8294 10.1026 18.7758 10.0014 18.6803C9.90009 18.5849 9.8432 18.4554 9.8432 18.3205V14.2964H8.51755C8.37449 14.2964 8.23729 14.2428 8.13613 14.1475C8.03497 14.0521 7.97814 13.9228 7.97814 13.788C7.97814 13.6531 8.03497 13.5238 8.13613 13.4285C8.23729 13.3331 8.37449 13.2796 8.51755 13.2796H12.2259C12.5231 13.2796 12.7642 13.5068 12.7642 13.788Z" fill="white"/>
</svg>
