<svg width="46" height="46" viewBox="0 0 46 46" fill="none" xmlns="http://www.w3.org/2000/svg">
<circle cx="23" cy="23" r="23" fill="black" fill-opacity="0.6"/>
<path d="M13 29.25C12.6458 29.25 12.3492 29.13 12.11 28.89C11.87 28.6508 11.75 28.3542 11.75 28C11.75 27.6458 11.87 27.3487 12.11 27.1087C12.3492 26.8696 12.6458 26.75 13 26.75H25.5C25.8542 26.75 26.1513 26.8696 26.3913 27.1087C26.6304 27.3487 26.75 27.6458 26.75 28C26.75 28.3542 26.6304 28.6508 26.3913 28.89C26.1513 29.13 25.8542 29.25 25.5 29.25H13ZM13 19.25C12.6458 19.25 12.3492 19.13 12.11 18.89C11.87 18.6508 11.75 18.3542 11.75 18C11.75 17.6458 11.87 17.3488 12.11 17.1088C12.3492 16.8696 12.6458 16.75 13 16.75H25.5C25.8542 16.75 26.1513 16.8696 26.3913 17.1088C26.6304 17.3488 26.75 17.6458 26.75 18C26.75 18.3542 26.6304 18.6508 26.3913 18.89C26.1513 19.13 25.8542 19.25 25.5 19.25H13ZM13 24.25C12.6458 24.25 12.3492 24.13 12.11 23.89C11.87 23.6508 11.75 23.3542 11.75 23C11.75 22.6458 11.87 22.3487 12.11 22.1087C12.3492 21.8696 12.6458 21.75 13 21.75H33C33.3542 21.75 33.6508 21.8696 33.89 22.1087C34.13 22.3487 34.25 22.6458 34.25 23C34.25 23.3542 34.13 23.6508 33.89 23.89C33.6508 24.13 33.3542 24.25 33 24.25H13ZM13 34.25C12.6458 34.25 12.3492 34.13 12.11 33.89C11.87 33.6508 11.75 33.3542 11.75 33C11.75 32.6458 11.87 32.3492 12.11 32.11C12.3492 31.87 12.6458 31.75 13 31.75H33C33.3542 31.75 33.6508 31.87 33.89 32.11C34.13 32.3492 34.25 32.6458 34.25 33C34.25 33.3542 34.13 33.6508 33.89 33.89C33.6508 34.13 33.3542 34.25 33 34.25H13ZM13 14.25C12.6458 14.25 12.3492 14.13 12.11 13.89C11.87 13.6508 11.75 13.3542 11.75 13C11.75 12.6458 11.87 12.3487 12.11 12.1087C12.3492 11.8696 12.6458 11.75 13 11.75H33C33.3542 11.75 33.6508 11.8696 33.89 12.1087C34.13 12.3487 34.25 12.6458 34.25 13C34.25 13.3542 34.13 13.6508 33.89 13.89C33.6508 14.13 33.3542 14.25 33 14.25H13Z" fill="white"/>
</svg>
