<svg width="70" height="42" viewBox="0 0 70 42" fill="none" xmlns="http://www.w3.org/2000/svg">
<path d="M31.5431 28C32.6092 28 33.5312 27.6193 34.2803 26.8692C35.0664 26.0819 35.4752 24.8684 35.366 23.7187L41.3613 17.7149C41.7705 17.3042 42.0003 16.7476 42 16.1674C41.9997 15.5871 41.7695 15.0308 41.3599 14.6204C40.5352 13.7932 39.0959 13.7932 38.2712 14.6204L32.052 20.8486C30.7128 20.9671 29.3869 21.9149 29.3869 23.596C29.3869 23.8084 29.4016 24.0082 29.4163 24.1989C29.4723 24.9217 29.4926 25.193 28.3865 25.7468C28.2779 25.8014 28.1853 25.8833 28.1178 25.9846C28.0504 26.0858 28.0104 26.2029 28.0018 26.3243C27.9931 26.4457 28.0162 26.5673 28.0687 26.6771C28.1212 26.7869 28.2013 26.8811 28.3011 26.9505C28.3641 26.9926 29.8363 28 31.5431 28ZM39.2611 15.611C39.4105 15.4675 39.6095 15.3875 39.8165 15.3878C40.0235 15.388 40.2224 15.4685 40.3714 15.6124C40.4442 15.6853 40.502 15.7719 40.5414 15.8672C40.5808 15.9624 40.6011 16.0645 40.6011 16.1677C40.6011 16.2708 40.5808 16.3729 40.5414 16.4681C40.502 16.5634 40.4442 16.65 40.3714 16.7229L35.0006 22.1014L33.8903 20.9895L39.2611 15.611ZM30.8129 24.0902C30.8003 23.9332 30.787 23.7692 30.787 23.5953C30.787 22.5122 31.7986 22.2261 32.3341 22.2261C32.5833 22.2261 32.8235 22.2773 33.009 22.3706C33.6705 22.7036 33.891 23.277 33.9589 23.6998C34.0828 24.4639 33.807 25.3598 33.2897 25.8779C32.806 26.3623 32.2347 26.5979 31.5431 26.5979C31.018 26.5979 30.507 26.4605 30.0905 26.2985C30.8479 25.6164 30.8752 24.9042 30.8129 24.0902Z" fill="white"/>
</svg>
