<svg width="14" height="14" viewBox="0 0 14 14" fill="none" xmlns="http://www.w3.org/2000/svg">
<path d="M3.54306 14C4.60924 14 5.5312 13.6193 6.28026 12.8692C7.06641 12.0819 7.47524 10.8684 7.36604 9.71868L13.3613 3.71487C13.7705 3.30417 14.0003 2.74758 14 2.16736C13.9997 1.58715 13.7695 1.03076 13.3599 0.620431C12.5352 -0.20681 11.0959 -0.20681 10.2712 0.620431L4.052 6.84857C2.7128 6.96705 1.38691 7.91487 1.38691 9.59599C1.38691 9.80841 1.40161 10.0082 1.41631 10.1989C1.47231 10.9217 1.49261 11.193 0.386534 11.7468C0.277893 11.8014 0.185296 11.8833 0.117837 11.9846C0.050378 12.0858 0.010377 12.2029 0.00176246 12.3243C-0.0068521 12.4457 0.0162161 12.5673 0.0687015 12.6771C0.121187 12.7869 0.201285 12.8811 0.301128 12.9505C0.364132 12.9926 1.83634 14 3.54306 14ZM11.2611 1.61102C11.4105 1.46752 11.6095 1.38751 11.8165 1.38777C12.0235 1.38803 12.2224 1.46854 12.3714 1.61242C12.4442 1.68533 12.502 1.77189 12.5414 1.86716C12.5808 1.96243 12.6011 2.06453 12.6011 2.16765C12.6011 2.27077 12.5808 2.37288 12.5414 2.46814C12.502 2.56341 12.4442 2.64997 12.3714 2.72288L7.00061 8.10135L5.89033 6.98948L11.2611 1.61102ZM2.81291 10.0902C2.80031 9.9332 2.78701 9.76915 2.78701 9.59529C2.78701 8.51217 3.79858 8.22614 4.33412 8.22614C4.58334 8.22614 4.82345 8.27732 5.00897 8.37056C5.67051 8.70356 5.89103 9.27702 5.95893 9.69975C6.08284 10.4639 5.80702 11.3598 5.28969 11.8779C4.80595 12.3623 4.23471 12.5979 3.54306 12.5979C3.01802 12.5979 2.50699 12.4605 2.09046 12.2985C2.84791 11.6164 2.87521 10.9042 2.81291 10.0902Z" fill="white"/>
</svg>
