<svg width="21" height="24" viewBox="0 0 21 24" fill="none" xmlns="http://www.w3.org/2000/svg">
<path d="M0 5.2528C0 4.79417 0.379677 4.42378 0.847597 4.42378H6.40691C6.41387 3.44614 6.52069 2.1074 7.48904 1.18085C8.28671 0.420061 9.34753 -0.00302011 10.4498 1.62308e-05C11.5521 -0.00302011 12.6129 0.420061 13.4106 1.18085C14.379 2.1074 14.4858 3.44614 14.4928 4.42378H20.0521C20.52 4.42378 20.8997 4.79533 20.8997 5.2528C20.8984 5.36289 20.8756 5.47166 20.8323 5.5729C20.7891 5.67415 20.7263 5.76588 20.6476 5.84286C20.5689 5.91985 20.4758 5.98057 20.3736 6.02157C20.2714 6.06257 20.1622 6.08304 20.0521 6.08182H0.847597C0.737507 6.08304 0.628254 6.06257 0.526076 6.02157C0.423897 5.98057 0.330796 5.91985 0.252088 5.84286C0.17338 5.76588 0.110607 5.67415 0.0673534 5.5729C0.0240999 5.47166 0.00121308 5.36289 0 5.2528Z" fill="white"/>
<path fill-rule="evenodd" clip-rule="evenodd" d="M9.9806 23.2235H10.9188C14.1501 23.2235 15.7652 23.2235 16.8171 22.1948C17.8667 21.1661 17.9736 19.4778 18.1884 16.1037L18.4984 11.2422C18.6145 9.41118 18.6725 8.49508 18.1466 7.91453C17.6194 7.33398 16.73 7.33398 14.9501 7.33398H5.94929C4.16933 7.33398 3.27878 7.33398 2.7528 7.91453C2.22567 8.49508 2.28372 9.41118 2.40099 11.2422L2.711 16.1049C2.92581 19.479 3.03263 21.1672 4.08341 22.1948C5.1342 23.2235 6.74928 23.2235 9.9806 23.2235ZM8.41313 11.8309C8.36668 11.3281 7.9394 10.9601 7.46103 11.01C6.9815 11.0611 6.63317 11.5093 6.68078 12.0143L7.26132 18.1252C7.30777 18.6291 7.73505 18.996 8.21342 18.9461C8.69295 18.895 9.04128 18.4468 8.99367 17.9429L8.41313 11.8309ZM13.4395 11.01C13.9179 11.0611 14.2674 11.5093 14.2186 12.0143L13.638 18.1252C13.5916 18.6291 13.1632 18.996 12.6859 18.9461C12.2064 18.895 11.8581 18.4468 11.9057 17.9429L12.4862 11.8309C12.5327 11.3281 12.9623 10.9601 13.4395 11.01Z" fill="white"/>
</svg>
