<svg width="70" height="42" viewBox="0 0 70 42" fill="none" xmlns="http://www.w3.org/2000/svg">
<path d="M37.8087 20.8235C38.5153 20.8235 39.0881 20.2507 39.0881 19.5441C39.0881 18.8375 38.5153 18.2646 37.8087 18.2646C37.1021 18.2646 36.5293 18.8375 36.5293 19.5441C36.5293 20.2507 37.1021 20.8235 37.8087 20.8235Z" fill="white"/>
<path d="M32.691 20.8235C33.3976 20.8235 33.9704 20.2507 33.9704 19.5441C33.9704 18.8375 33.3976 18.2646 32.691 18.2646C31.9844 18.2646 31.4116 18.8375 31.4116 19.5441C31.4116 20.2507 31.9844 20.8235 32.691 20.8235Z" fill="white"/>
<path d="M35.2499 25.9411C37.0001 25.9411 38.4893 24.5252 39.0881 22.5293H31.4116C32.0104 24.5252 33.4996 25.9411 35.2499 25.9411Z" fill="white"/>
<path d="M35.2428 14C31.2407 14 28 17.248 28 21.25C28 25.252 31.2407 28.5 35.2428 28.5C39.252 28.5 42.5 25.252 42.5 21.25C42.5 17.248 39.252 14 35.2428 14ZM35.25 27.05C32.0455 27.05 29.45 24.4545 29.45 21.25C29.45 18.0455 32.0455 15.45 35.25 15.45C38.4545 15.45 41.05 18.0455 41.05 21.25C41.05 24.4545 38.4545 27.05 35.25 27.05Z" fill="white"/>
</svg>
