<svg width="15" height="15" viewBox="0 0 15 15" fill="none" xmlns="http://www.w3.org/2000/svg">
<path d="M9.80895 6.82354C10.5156 6.82354 11.0884 6.25073 11.0884 5.54413C11.0884 4.83753 10.5156 4.26472 9.80895 4.26472C9.10235 4.26472 8.52954 4.83753 8.52954 5.54413C8.52954 6.25073 9.10235 6.82354 9.80895 6.82354Z" fill="white"/>
<path d="M4.69103 6.82354C5.39763 6.82354 5.97044 6.25073 5.97044 5.54413C5.97044 4.83753 5.39763 4.26472 4.69103 4.26472C3.98443 4.26472 3.41162 4.83753 3.41162 5.54413C3.41162 6.25073 3.98443 6.82354 4.69103 6.82354Z" fill="white"/>
<path d="M7.24986 11.9412C9.00009 11.9412 10.4893 10.5253 11.0881 8.52944H3.41162C4.01039 10.5253 5.49962 11.9412 7.24986 11.9412Z" fill="white"/>
<path d="M7.24275 0C3.24075 0 0 3.248 0 7.25C0 11.252 3.24075 14.5 7.24275 14.5C11.252 14.5 14.5 11.252 14.5 7.25C14.5 3.248 11.252 0 7.24275 0ZM7.25 13.05C4.0455 13.05 1.45 10.4545 1.45 7.25C1.45 4.0455 4.0455 1.45 7.25 1.45C10.4545 1.45 13.05 4.0455 13.05 7.25C13.05 10.4545 10.4545 13.05 7.25 13.05Z" fill="white"/>
</svg>
