<svg width="21" height="14" viewBox="0 0 21 14" fill="none" xmlns="http://www.w3.org/2000/svg">
<path d="M5.82422 13.6551L0.327488 7.88583C0.207993 7.76041 0.123152 7.62454 0.0729649 7.47821C0.0227773 7.33189 -0.00151972 7.17512 7.35354e-05 7.00789C7.35354e-05 6.84067 0.0251673 6.68389 0.0753549 6.53757C0.125542 6.39125 0.209587 6.25538 0.327488 6.12996L5.8541 0.329334C6.07317 0.099399 6.34721 -0.0101337 6.67622 0.000735965C7.00523 0.0116056 7.27887 0.131589 7.49714 0.360688C7.71622 0.590623 7.82575 0.883267 7.82575 1.23862C7.82575 1.59397 7.71622 1.88662 7.49714 2.11655L4.03181 5.7537H18.6101V1.99113C18.6101 1.63578 18.7248 1.3377 18.9543 1.0969C19.1837 0.856093 19.4673 0.736109 19.8051 0.736945C20.1436 0.736945 20.4276 0.857347 20.657 1.09815C20.8865 1.33896 21.0008 1.63662 21 1.99113V7.00789C21 7.36325 20.8853 7.66133 20.6559 7.90213C20.4264 8.14293 20.1428 8.26292 19.8051 8.26208H4.03181L7.52702 11.9306C7.74609 12.1605 7.85085 12.4481 7.84129 12.7935C7.83173 13.1388 7.71701 13.426 7.49714 13.6551C7.27807 13.885 6.99925 14 6.66068 14C6.32212 14 6.0433 13.885 5.82422 13.6551Z" fill="black"/>
</svg>
