<svg width="19" height="12" viewBox="0 0 19 12" fill="none" xmlns="http://www.w3.org/2000/svg">
<path d="M5.80009 11.2997L1.20009 6.6997C1.10009 6.5997 1.02909 6.49136 0.987087 6.3747C0.945087 6.25803 0.924754 6.13303 0.926087 5.9997C0.926087 5.86636 0.947087 5.74136 0.989087 5.6247C1.03109 5.50803 1.10142 5.3997 1.20009 5.2997L5.82509 0.674696C6.00842 0.491363 6.23775 0.40403 6.51309 0.412696C6.78842 0.421363 7.01742 0.517029 7.20009 0.699696C7.38342 0.883029 7.47509 1.11636 7.47509 1.3997C7.47509 1.68303 7.38342 1.91636 7.20009 2.0997L4.30009 4.9997H16.5001V1.9997C16.5001 1.71636 16.5961 1.4787 16.7881 1.2867C16.9801 1.0947 17.2174 0.999029 17.5001 0.999696C17.7834 0.999696 18.0211 1.0957 18.2131 1.2877C18.4051 1.4797 18.5008 1.71703 18.5001 1.9997V5.9997C18.5001 6.28303 18.4041 6.5207 18.2121 6.7127C18.0201 6.9047 17.7828 7.00036 17.5001 6.9997H4.30009L7.22509 9.9247C7.40842 10.108 7.49609 10.3374 7.48809 10.6127C7.48009 10.888 7.38409 11.117 7.20009 11.2997C7.01675 11.483 6.78342 11.5747 6.50009 11.5747C6.21675 11.5747 5.98342 11.483 5.80009 11.2997Z" fill="black"/>
</svg>
