<svg width="60" height="60" viewBox="0 0 60 60" fill="none" xmlns="http://www.w3.org/2000/svg">
<rect width="60" height="60" rx="30" fill="white"/>
<path d="M27.9293 31.8642C28.5014 32.4084 28.5014 33.3014 27.9293 33.8456C27.3852 34.3898 26.4921 34.3898 25.9479 33.8456C24.641 32.5367 23.907 30.7627 23.907 28.9131C23.907 27.0634 24.641 25.2894 25.9479 23.9805L30.8875 19.041C32.1964 17.7341 33.9704 17 35.82 17C37.6697 17 39.4437 17.7341 40.7526 19.041C42.0595 20.3498 42.7936 22.1239 42.7936 23.9735C42.7936 25.8232 42.0595 27.5972 40.7526 28.9061L38.6735 30.9852C38.6875 29.841 38.5061 28.6968 38.1154 27.6084L38.7712 26.9386C39.1624 26.5517 39.4729 26.091 39.6848 25.5832C39.8968 25.0755 40.0059 24.5307 40.0059 23.9805C40.0059 23.4303 39.8968 22.8855 39.6848 22.3778C39.4729 21.87 39.1624 21.4093 38.7712 21.0224C38.3842 20.6312 37.9236 20.3207 37.4158 20.1087C36.908 19.8968 36.3633 19.7876 35.8131 19.7876C35.2628 19.7876 34.7181 19.8968 34.2103 20.1087C33.7026 20.3207 33.2419 20.6312 32.8549 21.0224L27.9293 25.9479C27.5382 26.3349 27.2276 26.7956 27.0157 27.3033C26.8038 27.8111 26.6946 28.3559 26.6946 28.9061C26.6946 29.4563 26.8038 30.0011 27.0157 30.5088C27.2276 31.0166 27.5382 31.4773 27.9293 31.8642ZM31.8642 25.9479C32.4084 25.4038 33.3014 25.4038 33.8456 25.9479C35.1525 27.2568 35.8866 29.0309 35.8866 30.8805C35.8866 32.7301 35.1525 34.5042 33.8456 35.8131L28.9061 40.7526C27.5972 42.0595 25.8232 42.7936 23.9735 42.7936C22.1239 42.7936 20.3498 42.0595 19.041 40.7526C17.7341 39.4437 17 37.6697 17 35.82C17 33.9704 17.7341 32.1964 19.041 30.8875L21.12 28.8084C21.1061 29.9526 21.2875 31.0968 21.6782 32.1991L21.0224 32.8549C20.6312 33.2419 20.3207 33.7026 20.1087 34.2103C19.8968 34.7181 19.7876 35.2628 19.7876 35.8131C19.7876 36.3633 19.8968 36.908 20.1087 37.4158C20.3207 37.9236 20.6312 38.3842 21.0224 38.7712C21.4093 39.1624 21.87 39.4729 22.3778 39.6848C22.8855 39.8968 23.4303 40.0059 23.9805 40.0059C24.5307 40.0059 25.0755 39.8968 25.5832 39.6848C26.091 39.4729 26.5517 39.1624 26.9386 38.7712L31.8642 33.8456C32.2554 33.4587 32.5659 32.998 32.7779 32.4902C32.9898 31.9825 33.0989 31.4377 33.0989 30.8875C33.0989 30.3373 32.9898 29.7925 32.7779 29.2847C32.5659 28.777 32.2554 28.3163 31.8642 27.9293C31.7287 27.8023 31.6207 27.6489 31.5468 27.4785C31.473 27.3081 31.4349 27.1244 31.4349 26.9386C31.4349 26.7529 31.473 26.5692 31.5468 26.3988C31.6207 26.2284 31.7287 26.0749 31.8642 25.9479Z" fill="black"/>
</svg>
