<svg width="22" height="20" viewBox="0 0 22 20" fill="none" xmlns="http://www.w3.org/2000/svg">
<path d="M15.0883 10H15.9069M19.1814 10H20M6.27675 6.00519C6.49396 5.77094 6.66157 5.49709 6.76995 5.19938C6.87833 4.90168 6.92534 4.58601 6.90827 4.27051C6.89121 3.95501 6.8104 3.64592 6.6705 3.36102C6.5306 3.07611 6.33438 2.821 6.0931 2.61038C5.85183 2.39975 5.57027 2.23775 5.26462 2.13371C4.95897 2.02966 4.63526 1.98562 4.31211 2.00411C3.98896 2.0226 3.67274 2.10326 3.38164 2.24145C3.09055 2.37965 2.83031 2.57264 2.61591 2.80934C2.18615 3.2838 1.96624 3.90498 2.00421 4.53717C2.04219 5.16936 2.33497 5.7612 2.81859 6.18339C3.30221 6.60559 3.93738 6.82383 4.58533 6.79044C5.23329 6.75705 5.84137 6.47474 6.27675 6.00519ZM6.27675 6.00519L16.7255 14.7938M6.27675 13.9948C6.49396 14.2291 6.66157 14.5029 6.76995 14.8006C6.87833 15.0983 6.92534 15.414 6.90827 15.7295C6.89121 16.045 6.8104 16.3541 6.6705 16.639C6.5306 16.9239 6.33438 17.179 6.0931 17.3896C5.85183 17.6003 5.57027 17.7622 5.26462 17.8663C4.95897 17.9703 4.63526 18.0144 4.31211 17.9959C3.98896 17.9774 3.67274 17.8967 3.38164 17.7585C3.09055 17.6204 2.83031 17.4274 2.61591 17.1907C2.18615 16.7162 1.96624 16.095 2.00421 15.4628C2.04219 14.8306 2.33497 14.2388 2.81859 13.8166C3.30221 13.3944 3.93738 13.1762 4.58533 13.2096C5.23329 13.243 5.84137 13.5253 6.27675 13.9948ZM6.27675 13.9948L16.7255 5.20623" stroke="white" stroke-width="2.5" stroke-linecap="round" stroke-linejoin="round"/>
</svg>
