<svg width="24" height="24" viewBox="0 0 24 24" fill="none" xmlns="http://www.w3.org/2000/svg">
<rect width="24" height="24" rx="12" fill="#2F2CCC" fill-opacity="0.5"/>
<path d="M9.6165 13.9954V14.3529M15.391 13.9954V14.3529M12.5037 7.56098C12.9873 7.56098 13.4782 7.62532 13.9473 7.74686C15.2322 6.31698 17.578 5.71643 18.5814 6.1311C19.5919 6.54576 18.2782 11.1357 18.2782 11.1357C18.6896 11.9007 19 12.7371 19 13.5951C19 16.7837 16.0911 19 12.5037 19C8.91634 19 6.00746 16.8552 6.00746 13.5951C6.00746 12.7014 6.36836 11.8792 6.72927 11.1357C6.72927 11.1357 5.36505 6.54576 6.36836 6.1311C7.37167 5.71643 9.7753 6.29553 11.0601 7.72541C11.5336 7.61753 12.0178 7.56238 12.5037 7.56098Z" stroke="white" stroke-width="1.5" stroke-linecap="round" stroke-linejoin="round"/>
<path d="M12 15H13L12.5 16L12 15Z" stroke="white" stroke-width="1.5" stroke-linecap="round" stroke-linejoin="round"/>
</svg>
