<svg width="46" height="46" viewBox="0 0 46 46" fill="none" xmlns="http://www.w3.org/2000/svg">
<circle cx="23" cy="23" r="23" fill="white"/>
<g clip-path="url(#clip0_369_2809)">
<path d="M22.5 11C23.6475 11 24.7542 11.1465 25.8203 11.4395C26.8864 11.7324 27.8792 12.1556 28.7988 12.709C29.7184 13.2624 30.5607 13.9134 31.3257 14.6621C32.0907 15.4108 32.7458 16.2531 33.291 17.189C33.8363 18.1248 34.2554 19.1217 34.5483 20.1797C34.8413 21.2376 34.9919 22.3444 35 23.5C35 24.6475 34.8535 25.7542 34.5605 26.8203C34.2676 27.8864 33.8444 28.8792 33.291 29.7988C32.7376 30.7184 32.0866 31.5607 31.3379 32.3257C30.5892 33.0907 29.7469 33.7458 28.811 34.291C27.8752 34.8363 26.8783 35.2554 25.8203 35.5483C24.7624 35.8413 23.6556 35.9919 22.5 36C22.0687 36 21.6659 35.9186 21.2915 35.7559C20.9172 35.5931 20.5835 35.3693 20.2905 35.0845C19.9976 34.7996 19.7738 34.4701 19.6191 34.0957C19.4645 33.7214 19.3831 33.3145 19.375 32.875C19.375 32.4437 19.4279 32.0246 19.5337 31.6177C19.6395 31.2108 19.8104 30.8202 20.0464 30.4458C20.0952 30.3563 20.14 30.2871 20.1807 30.2383C20.2214 30.1895 20.2702 30.1243 20.3271 30.043C20.5306 29.7256 20.6812 29.4367 20.7788 29.1763C20.8765 28.9159 20.9294 28.5863 20.9375 28.1875C20.9375 27.7562 20.8561 27.3534 20.6934 26.979C20.5306 26.6047 20.3068 26.271 20.022 25.978C19.7371 25.6851 19.4076 25.4613 19.0332 25.3066C18.6589 25.152 18.252 25.0706 17.8125 25.0625C17.4219 25.0625 17.0964 25.1113 16.8359 25.209C16.5755 25.3066 16.2826 25.4613 15.957 25.6729C15.8757 25.7298 15.8105 25.7786 15.7617 25.8193C15.7129 25.86 15.6437 25.9048 15.5542 25.9536C15.188 26.1815 14.8014 26.3483 14.3945 26.4541C13.9876 26.5599 13.5645 26.6169 13.125 26.625C12.6937 26.625 12.2909 26.5436 11.9165 26.3809C11.5422 26.2181 11.2085 25.9943 10.9155 25.7095C10.6226 25.4246 10.3988 25.0951 10.2441 24.7207C10.0895 24.3464 10.0081 23.9395 10 23.5C10 22.3525 10.1465 21.2458 10.4395 20.1797C10.7324 19.1136 11.1556 18.1208 11.709 17.2012C12.2624 16.2816 12.9134 15.4393 13.6621 14.6743C14.4108 13.9093 15.2531 13.2542 16.189 12.709C17.1248 12.1637 18.1217 11.7446 19.1797 11.4517C20.2376 11.1587 21.3444 11.0081 22.5 11ZM27.1875 16.8594C26.9189 16.8594 26.6667 16.9082 26.4307 17.0059C26.1947 17.1035 25.9871 17.2459 25.8081 17.4331C25.6291 17.6203 25.4907 17.8278 25.3931 18.0557C25.2954 18.2835 25.2425 18.5358 25.2344 18.8125C25.2344 19.0811 25.2832 19.3333 25.3809 19.5693C25.4785 19.8053 25.6209 20.0129 25.8081 20.1919C25.9953 20.3709 26.2028 20.5093 26.4307 20.6069C26.6585 20.7046 26.9108 20.7575 27.1875 20.7656C27.4561 20.7656 27.7083 20.7168 27.9443 20.6191C28.1803 20.5215 28.3879 20.3791 28.5669 20.1919C28.7459 20.0047 28.8843 19.7972 28.9819 19.5693C29.0796 19.3415 29.1325 19.0892 29.1406 18.8125C29.1406 18.5439 29.0918 18.2917 28.9941 18.0557C28.8965 17.8197 28.7541 17.6121 28.5669 17.4331C28.3797 17.2541 28.1722 17.1157 27.9443 17.0181C27.7165 16.9204 27.4642 16.8675 27.1875 16.8594ZM16.25 22.3281C16.5186 22.3281 16.7708 22.2793 17.0068 22.1816C17.2428 22.084 17.4504 21.9416 17.6294 21.7544C17.8084 21.5672 17.9468 21.3597 18.0444 21.1318C18.1421 20.904 18.195 20.6517 18.2031 20.375C18.2031 20.1064 18.1543 19.8542 18.0566 19.6182C17.959 19.3822 17.8166 19.1746 17.6294 18.9956C17.4422 18.8166 17.2347 18.6782 17.0068 18.5806C16.779 18.4829 16.5267 18.43 16.25 18.4219C15.9814 18.4219 15.7292 18.4707 15.4932 18.5684C15.2572 18.666 15.0496 18.8084 14.8706 18.9956C14.6916 19.1828 14.5532 19.3903 14.4556 19.6182C14.3579 19.846 14.305 20.0983 14.2969 20.375C14.2969 20.6436 14.3457 20.8958 14.4434 21.1318C14.541 21.3678 14.6834 21.5754 14.8706 21.7544C15.0578 21.9334 15.2653 22.0718 15.4932 22.1694C15.721 22.2671 15.9733 22.32 16.25 22.3281ZM20.9375 19.2031C21.2061 19.2031 21.4583 19.1543 21.6943 19.0566C21.9303 18.959 22.1379 18.8166 22.3169 18.6294C22.4959 18.4422 22.6343 18.2347 22.7319 18.0068C22.8296 17.779 22.8825 17.5267 22.8906 17.25C22.8906 16.9814 22.8418 16.7292 22.7441 16.4932C22.6465 16.2572 22.5041 16.0496 22.3169 15.8706C22.1297 15.6916 21.9222 15.5532 21.6943 15.4556C21.4665 15.3579 21.2142 15.305 20.9375 15.2969C20.6689 15.2969 20.4167 15.3457 20.1807 15.4434C19.9447 15.541 19.7371 15.6834 19.5581 15.8706C19.3791 16.0578 19.2407 16.2653 19.1431 16.4932C19.0454 16.721 18.9925 16.9733 18.9844 17.25C18.9844 17.5186 19.0332 17.7708 19.1309 18.0068C19.2285 18.2428 19.3709 18.4504 19.5581 18.6294C19.7453 18.8084 19.9528 18.9468 20.1807 19.0444C20.4085 19.1421 20.6608 19.195 20.9375 19.2031ZM25.625 31.7031C25.8936 31.7031 26.1458 31.6543 26.3818 31.5566C26.6178 31.459 26.8254 31.3166 27.0044 31.1294C27.1834 30.9422 27.3218 30.7347 27.4194 30.5068C27.5171 30.279 27.57 30.0267 27.5781 29.75C27.5781 29.4814 27.5293 29.2292 27.4316 28.9932C27.334 28.7572 27.1916 28.5496 27.0044 28.3706C26.8172 28.1916 26.6097 28.0532 26.3818 27.9556C26.154 27.8579 25.9017 27.805 25.625 27.7969C25.3564 27.7969 25.1042 27.8457 24.8682 27.9434C24.6322 28.041 24.4246 28.1834 24.2456 28.3706C24.0666 28.5578 23.9282 28.7653 23.8306 28.9932C23.7329 29.221 23.68 29.4733 23.6719 29.75C23.6719 30.0186 23.7207 30.2708 23.8184 30.5068C23.916 30.7428 24.0584 30.9504 24.2456 31.1294C24.4328 31.3084 24.6403 31.4468 24.8682 31.5444C25.096 31.6421 25.3483 31.695 25.625 31.7031ZM28.75 27.0156C29.0186 27.0156 29.2708 26.9668 29.5068 26.8691C29.7428 26.7715 29.9504 26.6291 30.1294 26.4419C30.3084 26.2547 30.4468 26.0472 30.5444 25.8193C30.6421 25.5915 30.695 25.3392 30.7031 25.0625C30.7031 24.7939 30.6543 24.5417 30.5566 24.3057C30.459 24.0697 30.3166 23.8621 30.1294 23.6831C29.9422 23.5041 29.7347 23.3657 29.5068 23.2681C29.279 23.1704 29.0267 23.1175 28.75 23.1094C28.4814 23.1094 28.2292 23.1582 27.9932 23.2559C27.7572 23.3535 27.5496 23.4959 27.3706 23.6831C27.1916 23.8703 27.0532 24.0778 26.9556 24.3057C26.8579 24.5335 26.805 24.7858 26.7969 25.0625C26.7969 25.3311 26.8457 25.5833 26.9434 25.8193C27.041 26.0553 27.1834 26.2629 27.3706 26.4419C27.5578 26.6209 27.7653 26.7593 27.9932 26.8569C28.221 26.9546 28.4733 27.0075 28.75 27.0156Z" fill="black"/>
</g>
<defs>
<clipPath id="clip0_369_2809">
<rect width="25" height="25" fill="white" transform="translate(10 11)"/>
</clipPath>
</defs>
</svg>
