<svg width="18" height="13" viewBox="0 0 18 13" fill="none" xmlns="http://www.w3.org/2000/svg">
<path d="M6.1368 13C5.98135 13 5.83561 12.9756 5.69958 12.9267C5.56356 12.8778 5.43725 12.7956 5.32066 12.6801L0.307221 7.67784C0.0934697 7.46457 -0.00874234 7.18809 0.000584989 6.8484C0.00991232 6.50871 0.12184 6.23262 0.336368 6.02012C0.55012 5.80685 0.822167 5.70022 1.15251 5.70022C1.48285 5.70022 1.7549 5.80685 1.96865 6.02012L6.1368 10.179L16.0179 0.31991C16.2317 0.106637 16.5088 0 16.8492 0C17.1897 0 17.4664 0.106637 17.6794 0.31991C17.8931 0.533184 18 0.809663 18 1.14935C18 1.48904 17.8931 1.76513 17.6794 1.97763L6.95294 12.6801C6.83635 12.7964 6.71004 12.879 6.57402 12.9279C6.438 12.9767 6.29226 13.0008 6.1368 13Z" fill="black"/>
</svg>
