<svg width="24" height="24" viewBox="0 0 24 24" fill="none" xmlns="http://www.w3.org/2000/svg">
<rect width="24" height="24" rx="12" fill="#2F2CCC" fill-opacity="0.5"/>
<path d="M19.6238 10.5876L13.4107 4.37638C13.1683 4.13532 12.8403 4 12.4984 4C12.1565 4 11.8285 4.13532 11.5861 4.37638L5.37681 10.5876C5.13548 10.83 5 11.158 5 11.5C5 11.842 5.13548 12.17 5.37681 12.4124L11.5893 18.6236C11.8317 18.8647 12.1597 19 12.5016 19C12.8435 19 13.1715 18.8647 13.4139 18.6236L19.6232 12.4124C19.8645 12.17 20 11.842 20 11.5C20 11.158 19.8645 10.83 19.6232 10.5876H19.6238ZM12.4987 17.3408L6.65683 11.5L12.4987 5.65924L18.3406 11.5L12.4987 17.3408Z" fill="white"/>
</svg>
