<svg width="24" height="24" viewBox="0 0 24 24" fill="none" xmlns="http://www.w3.org/2000/svg">
<g clip-path="url(#clip0_461_1419)">
<rect width="24" height="24" rx="12" fill="#2F2CCC" fill-opacity="0.5"/>
<path fill-rule="evenodd" clip-rule="evenodd" d="M11.0625 4.92503C11.3476 4.76046 11.6709 4.67383 12 4.67383C12.3292 4.67383 12.6525 4.76046 12.9375 4.92503L17.658 7.64978C17.9431 7.81434 18.1798 8.05103 18.3443 8.33606C18.5089 8.62108 18.5955 8.94441 18.5955 9.27353V14.7245C18.5955 15.0537 18.5089 15.377 18.3443 15.662C18.1798 15.947 17.9431 16.1837 17.658 16.3483L12.9375 19.0738C12.6525 19.2383 12.3292 19.325 12 19.325C11.6709 19.325 11.3476 19.2383 11.0625 19.0738L6.34204 16.3483C6.05701 16.1837 5.82032 15.947 5.65576 15.662C5.49119 15.377 5.40455 15.0537 5.40454 14.7245V9.27428C5.40442 8.94503 5.491 8.62155 5.65557 8.33638C5.82014 8.05121 6.0569 7.81441 6.34204 7.64978L11.0625 4.92503ZM12.1875 6.22403C12.1305 6.19112 12.0659 6.17379 12 6.17379C11.9342 6.17379 11.8695 6.19112 11.8125 6.22403L7.09204 8.94953C7.03504 8.98244 6.9877 9.02978 6.95478 9.08679C6.92187 9.14379 6.90454 9.20846 6.90454 9.27428V14.7253C6.90454 14.7911 6.92187 14.8558 6.95478 14.9128C6.9877 14.9698 7.03504 15.0171 7.09204 15.05L11.8125 17.7748C11.8695 17.8077 11.9342 17.825 12 17.825C12.0659 17.825 12.1305 17.8077 12.1875 17.7748L16.908 15.0493C16.965 15.0164 17.0124 14.969 17.0453 14.912C17.0782 14.855 17.0955 14.7904 17.0955 14.7245V9.27428C17.0955 9.20846 17.0782 9.14379 17.0453 9.08679C17.0124 9.02978 16.965 8.98244 16.908 8.94953L12.1875 6.22403Z" fill="white"/>
</g>
<defs>
<clipPath id="clip0_461_1419">
<rect width="24" height="24" rx="12" fill="white"/>
</clipPath>
</defs>
</svg>
