<svg width="24" height="24" viewBox="0 0 24 24" fill="none" xmlns="http://www.w3.org/2000/svg">
<rect width="24" height="24" rx="12" fill="#2F2CCC" fill-opacity="0.5"/>
<path d="M15.5714 5.5C14.0964 5.5 12.805 6.14765 12 7.24239C11.195 6.14765 9.90357 5.5 8.42857 5.5C7.25445 5.50135 6.12879 5.9782 5.29856 6.82593C4.46833 7.67365 4.00132 8.82303 4 10.0219C4 15.1273 11.4136 19.2597 11.7293 19.4304C11.8125 19.4761 11.9055 19.5 12 19.5C12.0945 19.5 12.1875 19.4761 12.2707 19.4304C12.5864 19.2597 20 15.1273 20 10.0219C19.9987 8.82303 19.5317 7.67365 18.7014 6.82593C17.8712 5.9782 16.7456 5.50135 15.5714 5.5ZM12 18.2488C10.6957 17.4728 5.14286 13.9377 5.14286 10.0219C5.14399 9.13247 5.49053 8.27979 6.10647 7.65087C6.72242 7.02194 7.55749 6.6681 8.42857 6.66694C9.81786 6.66694 10.9843 7.42254 11.4714 8.63616C11.5145 8.74317 11.5877 8.8347 11.6818 8.89912C11.7759 8.96353 11.8867 8.99793 12 8.99793C12.1133 8.99793 12.2241 8.96353 12.3182 8.89912C12.4123 8.8347 12.4855 8.74317 12.5286 8.63616C13.0157 7.42035 14.1821 6.66694 15.5714 6.66694C16.4425 6.6681 17.2776 7.02194 17.8935 7.65087C18.5095 8.27979 18.856 9.13247 18.8571 10.0219C18.8571 13.9319 13.3029 17.4721 12 18.2488Z" fill="white"/>
</svg>
