<svg width="60" height="60" viewBox="0 0 60 60" fill="none" xmlns="http://www.w3.org/2000/svg">
<g clip-path="url(#clip0_614_12107)">
<rect width="60" height="60" rx="30" fill="white"/>
<g clip-path="url(#clip1_614_12107)">
<path d="M45.9375 0H14.0625C6.296 0 0 6.296 0 14.0625V45.9375C0 53.704 6.296 60 14.0625 60H45.9375C53.704 60 60 53.704 60 45.9375V14.0625C60 6.296 53.704 0 45.9375 0Z" fill="url(#paint0_radial_614_12107)"/>
<path d="M45.9375 0H14.0625C6.296 0 0 6.296 0 14.0625V45.9375C0 53.704 6.296 60 14.0625 60H45.9375C53.704 60 60 53.704 60 45.9375V14.0625C60 6.296 53.704 0 45.9375 0Z" fill="url(#paint1_radial_614_12107)"/>
<path d="M30.0017 11C24.8417 11 24.194 11.0226 22.1674 11.1148C20.1447 11.2075 18.764 11.5276 17.556 11.9975C16.3061 12.4827 15.2461 13.132 14.1901 14.1884C13.1331 15.2446 12.4839 16.3046 11.9971 17.5538C11.5259 18.7622 11.2054 20.1435 11.1144 22.1652C11.0237 24.1919 11 24.8398 11 30C11 35.1602 11.0228 35.8058 11.1148 37.8323C11.2079 39.855 11.528 41.2357 11.9975 42.4437C12.4831 43.6935 13.1324 44.7535 14.1888 45.8096C15.2446 46.8665 16.3046 47.5173 17.5535 48.0025C18.7624 48.4724 20.1434 48.7925 22.1657 48.8852C24.1925 48.9774 24.8396 49 29.9994 49C35.16 49 35.8056 48.9774 37.8322 48.8852C39.8549 48.7925 41.2372 48.4724 42.4461 48.0025C43.6954 47.5173 44.7539 46.8665 45.8095 45.8096C46.8665 44.7535 47.5155 43.6935 48.0025 42.4443C48.4695 41.2357 48.7902 39.8546 48.8852 37.8327C48.9762 35.8062 49 35.1602 49 30C49 24.8398 48.9762 24.1923 48.8852 22.1656C48.7902 20.1429 48.4695 18.7624 48.0025 17.5544C47.5155 16.3046 46.8665 15.2446 45.8095 14.1884C44.7527 13.1316 43.6958 12.4824 42.445 11.9977C41.2337 11.5276 39.8523 11.2073 37.8295 11.1148C35.8028 11.0226 35.1575 11 29.9958 11H30.0017ZM28.2972 14.424C28.8032 14.4232 29.3677 14.424 30.0017 14.424C35.0749 14.424 35.6761 14.4422 37.6794 14.5332C39.5319 14.6179 40.5374 14.9275 41.2071 15.1876C42.0939 15.5318 42.726 15.9436 43.3906 16.6087C44.0556 17.2737 44.4672 17.907 44.8124 18.7937C45.0725 19.4625 45.3824 20.468 45.4668 22.3205C45.5578 24.3234 45.5775 24.925 45.5775 29.9956C45.5775 35.0663 45.5578 35.668 45.4668 37.6708C45.382 39.5233 45.0725 40.5287 44.8124 41.1977C44.4681 42.0844 44.0556 42.7158 43.3906 43.3804C42.7256 44.0454 42.0943 44.457 41.2071 44.8014C40.5382 45.0627 39.5319 45.3714 37.6794 45.4562C35.6764 45.5472 35.0749 45.5669 30.0017 45.5669C24.9283 45.5669 24.327 45.5472 22.3242 45.4562C20.4717 45.3707 19.4662 45.0611 18.7959 44.801C17.9093 44.4566 17.2759 44.045 16.6109 43.38C15.9459 42.7151 15.5344 42.0833 15.1891 41.1962C14.929 40.5272 14.6191 39.5218 14.5348 37.6693C14.4437 35.6663 14.4255 35.0648 14.4255 29.9909C14.4255 24.9172 14.4437 24.3187 14.5348 22.3157C14.6195 20.4632 14.929 19.4578 15.1891 18.788C15.5336 17.9013 15.9459 17.268 16.6111 16.603C17.2761 15.9381 17.9093 15.5263 18.7961 15.1813C19.4658 14.92 20.4717 14.6113 22.3242 14.5262C24.0769 14.4469 24.7562 14.4232 28.2972 14.4192V14.424ZM40.1439 17.5787C38.8852 17.5787 37.8639 18.599 37.8639 19.8579C37.8639 21.1166 38.8852 22.1379 40.1439 22.1379C41.4027 22.1379 42.4239 21.1166 42.4239 19.8579C42.4239 18.5992 41.4027 17.5779 40.1439 17.5779V17.5787ZM30.0017 20.2426C24.6133 20.2426 20.2444 24.6115 20.2444 30C20.2444 35.3885 24.6133 39.7553 30.0017 39.7553C35.3903 39.7553 39.7576 35.3885 39.7576 30C39.7576 24.6117 35.3899 20.2426 30.0013 20.2426H30.0017ZM30.0017 23.6666C33.4994 23.6666 36.3352 26.5019 36.3352 30C36.3352 33.4977 33.4994 36.3334 30.0017 36.3334C26.5038 36.3334 23.6684 33.4977 23.6684 30C23.6684 26.5019 26.5038 23.6666 30.0017 23.6666Z" fill="white"/>
</g>
</g>
<defs>
<radialGradient id="paint0_radial_614_12107" cx="0" cy="0" r="1" gradientUnits="userSpaceOnUse" gradientTransform="translate(15.9375 64.6212) rotate(-90) scale(59.4645 55.3066)">
<stop stop-color="#FFDD55"/>
<stop offset="0.1" stop-color="#FFDD55"/>
<stop offset="0.5" stop-color="#FF543E"/>
<stop offset="1" stop-color="#C837AB"/>
</radialGradient>
<radialGradient id="paint1_radial_614_12107" cx="0" cy="0" r="1" gradientUnits="userSpaceOnUse" gradientTransform="translate(-10.0502 4.32211) rotate(78.681) scale(26.5809 109.567)">
<stop stop-color="#3771C8"/>
<stop offset="0.128" stop-color="#3771C8"/>
<stop offset="1" stop-color="#6600FF" stop-opacity="0"/>
</radialGradient>
<clipPath id="clip0_614_12107">
<rect width="60" height="60" rx="30" fill="white"/>
</clipPath>
<clipPath id="clip1_614_12107">
<rect width="60" height="60" fill="white"/>
</clipPath>
</defs>
</svg>
