<svg width="60" height="60" viewBox="0 0 60 60" fill="none" xmlns="http://www.w3.org/2000/svg">
<g clip-path="url(#clip0_614_12115)">
<rect width="60" height="60" rx="30" fill="#C6D2FF"/>
<path d="M30 0C24.0666 0 18.2664 1.75947 13.3329 5.05591C8.39943 8.35235 4.55426 13.0377 2.28363 18.5195C0.0129985 24.0013 -0.581101 30.0333 0.576455 35.8527C1.73401 41.6721 4.59123 47.0176 8.78681 51.2132C12.9824 55.4088 18.3279 58.266 24.1473 59.4235C29.9667 60.5811 35.9987 59.987 41.4805 57.7164C46.9623 55.4457 51.6476 51.6006 54.9441 46.6671C58.2405 41.7336 60 35.9334 60 30C59.9916 22.0461 56.8282 14.4203 51.2039 8.79607C45.5797 3.1718 37.9539 0.00839948 30 0ZM30 55.3846C24.9794 55.3846 20.0716 53.8958 15.8971 51.1065C11.7226 48.3172 8.46899 44.3527 6.54769 39.7143C4.62638 35.0758 4.12368 29.9718 5.10316 25.0477C6.08263 20.1236 8.50028 15.6005 12.0504 12.0504C15.6005 8.50026 20.1236 6.08261 25.0477 5.10314C29.9718 4.12367 35.0758 4.62637 39.7143 6.54767C44.3527 8.46897 48.3172 11.7226 51.1065 15.8971C53.8958 20.0715 55.3846 24.9794 55.3846 30C55.377 36.7301 52.7001 43.1823 47.9412 47.9412C43.1823 52.7001 36.7301 55.377 30 55.3846ZM33.4615 30C33.4615 30.6846 33.2585 31.3539 32.8782 31.9231C32.4978 32.4924 31.9572 32.936 31.3247 33.198C30.6922 33.46 29.9962 33.5286 29.3247 33.395C28.6532 33.2615 28.0364 32.9318 27.5523 32.4477C27.0682 31.9636 26.7385 31.3468 26.605 30.6753C26.4714 30.0038 26.54 29.3078 26.802 28.6753C27.064 28.0428 27.5076 27.5022 28.0769 27.1218C28.6461 26.7415 29.3154 26.5385 30 26.5385C30.9181 26.5385 31.7985 26.9032 32.4477 27.5523C33.0968 28.2015 33.4615 29.0819 33.4615 30ZM46.1539 30C46.1539 30.6846 45.9508 31.3539 45.5705 31.9231C45.1901 32.4924 44.6495 32.936 44.017 33.198C43.3845 33.46 42.6885 33.5286 42.017 33.395C41.3455 33.2615 40.7287 32.9318 40.2446 32.4477C39.7605 31.9636 39.4309 31.3468 39.2973 30.6753C39.1637 30.0038 39.2323 29.3078 39.4943 28.6753C39.7563 28.0428 40.1999 27.5022 40.7692 27.1218C41.3384 26.7415 42.0077 26.5385 42.6923 26.5385C43.6104 26.5385 44.4908 26.9032 45.14 27.5523C45.7892 28.2015 46.1539 29.0819 46.1539 30ZM20.7692 30C20.7692 30.6846 20.5662 31.3539 20.1859 31.9231C19.8055 32.4924 19.2649 32.936 18.6324 33.198C17.9999 33.46 17.3039 33.5286 16.6324 33.395C15.9609 33.2615 15.3441 32.9318 14.86 32.4477C14.3759 31.9636 14.0462 31.3468 13.9127 30.6753C13.7791 30.0038 13.8477 29.3078 14.1097 28.6753C14.3717 28.0428 14.8153 27.5022 15.3846 27.1218C15.9538 26.7415 16.6231 26.5385 17.3077 26.5385C18.2258 26.5385 19.1062 26.9032 19.7554 27.5523C20.4045 28.2015 20.7692 29.0819 20.7692 30Z" fill="white"/>
</g>
<defs>
<clipPath id="clip0_614_12115">
<rect width="60" height="60" rx="30" fill="white"/>
</clipPath>
</defs>
</svg>
