<svg width="60" height="60" viewBox="0 0 60 60" fill="none" xmlns="http://www.w3.org/2000/svg">
<rect width="60" height="60" rx="30" fill="white"/>
<g clip-path="url(#clip0_614_12099)">
<path d="M30.5 13C20.6418 13 13 20.2212 13 29.975C13 35.0769 15.0908 39.4854 18.4961 42.5306C18.7818 42.7864 18.9544 43.1448 18.9661 43.5283L19.0614 46.6414C19.0919 47.6343 20.1174 48.2804 21.0261 47.8793L24.4996 46.3457C24.7939 46.2159 25.1241 46.1917 25.4343 46.2772C27.0305 46.7161 28.7292 46.9499 30.5 46.9499C40.3582 46.9499 48 39.7287 48 29.9749C48 20.2211 40.3582 13 30.5 13Z" fill="#0099FF"/>
<path d="M19.9913 34.9395L25.132 26.7838C25.9495 25.4863 27.7006 25.1633 28.9276 26.0834L33.0161 29.15C33.1987 29.2869 33.421 29.3606 33.6492 29.36C33.8775 29.3593 34.0993 29.2843 34.2811 29.1463L39.8029 24.9556C40.5398 24.3963 41.502 25.2782 41.0087 26.0609L35.8681 34.2168C35.0504 35.5141 33.2991 35.8372 32.0724 34.917L27.9837 31.8504C27.8011 31.7136 27.5789 31.6399 27.3507 31.6405C27.1225 31.6412 26.9008 31.7162 26.719 31.8541L21.1969 36.0448C20.46 36.604 19.4979 35.7222 19.9913 34.9395Z" fill="white"/>
</g>
<defs>
<clipPath id="clip0_614_12099">
<rect width="35" height="35" fill="white" transform="translate(13 13)"/>
</clipPath>
</defs>
</svg>
