<svg width="24" height="24" viewBox="0 0 24 24" fill="none" xmlns="http://www.w3.org/2000/svg">
<path d="M11.5 13.6C12.0844 13.6 12.5848 13.3942 13.0013 12.9826C13.4178 12.571 13.6257 12.0768 13.625 11.5C13.625 10.9225 13.4167 10.4279 13.0002 10.0163C12.5837 9.60475 12.0837 9.3993 11.5 9.4C10.9156 9.4 10.4152 9.6058 9.99869 10.0174C9.58219 10.429 9.37429 10.9232 9.375 11.5C9.375 12.0775 9.58325 12.572 9.99975 12.9836C10.4163 13.3952 10.9163 13.6007 11.5 13.6ZM11.5 19.795C12.226 19.6025 12.9478 19.2483 13.6654 18.7324C14.3829 18.2165 15.007 17.6432 15.5375 17.0125L13.625 15.1225C13.3062 15.315 12.9652 15.4595 12.6018 15.5561C12.2384 15.6527 11.8712 15.7007 11.5 15.7C10.3313 15.7 9.33073 15.2887 8.49844 14.4662C7.66615 13.6437 7.25 12.655 7.25 11.5C7.25 10.345 7.66615 9.35625 8.49844 8.53375C9.33073 7.71125 10.3313 7.3 11.5 7.3C12.6687 7.3 13.6693 7.71125 14.5016 8.53375C15.3339 9.35625 15.75 10.345 15.75 11.5C15.75 11.885 15.7011 12.257 15.6034 12.6161C15.5056 12.9752 15.3597 13.3207 15.1656 13.6525L16.7594 15.2275C17.1135 14.51 17.388 13.7575 17.5828 12.97C17.7776 12.1825 17.875 11.3775 17.875 10.555V5.59375L11.5 3.23125L5.125 5.59375V10.555C5.125 12.6725 5.72708 14.5975 6.93125 16.33C8.13542 18.0625 9.65833 19.2175 11.5 19.795ZM11.5 22C9.03854 21.3875 7.00633 19.9917 5.40338 17.8126C3.80042 15.6335 2.99929 13.2143 3 10.555V4.15L11.5 1L20 4.15V10.555C20 13.215 19.1985 15.6346 17.5956 17.8137C15.9926 19.9928 13.9607 21.3882 11.5 22Z" fill="black"/>
</svg>
