<svg width="17" height="17" viewBox="0 0 17 17" fill="none" xmlns="http://www.w3.org/2000/svg">
<path d="M10.88 4.42H1.7C1.24913 4.42 0.81673 4.59911 0.497918 4.91792C0.179107 5.23673 0 5.66913 0 6.12V15.3C0 15.7509 0.179107 16.1833 0.497918 16.5021C0.81673 16.8209 1.24913 17 1.7 17H10.88C11.3309 17 11.7633 16.8209 12.0821 16.5021C12.4009 16.1833 12.58 15.7509 12.58 15.3V6.12C12.58 5.66913 12.4009 5.23673 12.0821 4.91792C11.7633 4.59911 11.3309 4.42 10.88 4.42ZM10.54 14.96H2.04V6.46H10.54V14.96ZM8.84 1.02C8.84 0.749479 8.94746 0.490038 9.13875 0.298751C9.33004 0.107464 9.58948 0 9.86 0H11.22C11.4905 0 11.75 0.107464 11.9412 0.298751C12.1325 0.490038 12.24 0.749479 12.24 1.02C12.24 1.29052 12.1325 1.54996 11.9412 1.74125C11.75 1.93254 11.4905 2.04 11.22 2.04H9.86C9.58948 2.04 9.33004 1.93254 9.13875 1.74125C8.94746 1.54996 8.84 1.29052 8.84 1.02ZM17 1.7V2.38C17 2.65052 16.8925 2.90996 16.7012 3.10125C16.51 3.29254 16.2505 3.4 15.98 3.4C15.7095 3.4 15.45 3.29254 15.2588 3.10125C15.0675 2.90996 14.96 2.65052 14.96 2.38V2.04H14.62C14.3495 2.04 14.09 1.93254 13.8988 1.74125C13.7075 1.54996 13.6 1.29052 13.6 1.02C13.6 0.749479 13.7075 0.490038 13.8988 0.298751C14.09 0.107464 14.3495 0 14.62 0H15.3C15.7509 0 16.1833 0.179107 16.5021 0.497918C16.8209 0.81673 17 1.24913 17 1.7ZM17 5.78V7.14C17 7.41052 16.8925 7.66996 16.7012 7.86125C16.51 8.05254 16.2505 8.16 15.98 8.16C15.7095 8.16 15.45 8.05254 15.2588 7.86125C15.0675 7.66996 14.96 7.41052 14.96 7.14V5.78C14.96 5.50948 15.0675 5.25004 15.2588 5.05875C15.45 4.86746 15.7095 4.76 15.98 4.76C16.2505 4.76 16.51 4.86746 16.7012 5.05875C16.8925 5.25004 17 5.50948 17 5.78ZM17 10.54V11.22C17 11.6709 16.8209 12.1033 16.5021 12.4221C16.1833 12.7409 15.7509 12.92 15.3 12.92H14.62C14.3495 12.92 14.09 12.8125 13.8988 12.6212C13.7075 12.43 13.6 12.1705 13.6 11.9C13.6 11.6295 13.7075 11.37 13.8988 11.1788C14.09 10.9875 14.3495 10.88 14.62 10.88H14.96V10.54C14.96 10.2695 15.0675 10.01 15.2588 9.81875C15.45 9.62746 15.7095 9.52 15.98 9.52C16.2505 9.52 16.51 9.62746 16.7012 9.81875C16.8925 10.01 17 10.2695 17 10.54ZM4.08 2.38V1.7C4.08 1.24913 4.25911 0.81673 4.57792 0.497918C4.89673 0.179107 5.32913 0 5.78 0H6.46C6.73052 0 6.98996 0.107464 7.18125 0.298751C7.37254 0.490038 7.48 0.749479 7.48 1.02C7.48 1.29052 7.37254 1.54996 7.18125 1.74125C6.98996 1.93254 6.73052 2.04 6.46 2.04H6.12V2.38C6.12 2.65052 6.01254 2.90996 5.82125 3.10125C5.62996 3.29254 5.37052 3.4 5.1 3.4C4.82948 3.4 4.57004 3.29254 4.37875 3.10125C4.18746 2.90996 4.08 2.65052 4.08 2.38Z" fill="white"/>
</svg>
