<svg width="30" height="30" viewBox="0 0 30 30" fill="none" xmlns="http://www.w3.org/2000/svg">
<path d="M22.3333 11.6663H12.2813C11.0708 11.6869 9.91683 12.1822 9.06808 13.0455C8.21932 13.9088 7.7437 15.071 7.7437 16.2816C7.7437 17.4923 8.21932 18.6545 9.06808 19.5178C9.91683 20.3811 11.0708 20.8764 12.2813 20.897H18.3333M22.3333 11.6663L19.3333 8.89697M22.3333 11.6663L19.3333 14.4356" stroke="url(#paint0_linear_780_296)" stroke-width="1.5" stroke-linecap="round" stroke-linejoin="round"/>
<path d="M28.3333 14.9998C28.3333 8.7145 28.3333 5.57184 26.3813 3.6185C24.4266 1.6665 21.2853 1.6665 14.9999 1.6665C8.71459 1.6665 5.57192 1.6665 3.61992 3.6185C1.66659 5.57317 1.66659 8.7145 1.66659 14.9998C1.66659 21.2852 1.66659 24.4278 3.61992 26.3798C5.57059 28.3332 8.71459 28.3332 14.9999 28.3332C21.2853 28.3332 24.4279 28.3332 26.3813 26.3798C28.3333 24.4292 28.3333 21.2852 28.3333 14.9998Z" stroke="url(#paint1_linear_780_296)" stroke-width="1.5"/>
<defs>
<linearGradient id="paint0_linear_780_296" x1="22.9487" y1="11.147" x2="6.67076" y2="11.4153" gradientUnits="userSpaceOnUse">
<stop stop-color="#DE225B"/>
<stop offset="1" stop-color="#E46D39"/>
</linearGradient>
<linearGradient id="paint1_linear_780_296" x1="29.4583" y1="6.66652" x2="-0.297136" y2="7.06989" gradientUnits="userSpaceOnUse">
<stop stop-color="#DE225B"/>
<stop offset="1" stop-color="#E46D39"/>
</linearGradient>
</defs>
</svg>
