<svg width="32" height="32" viewBox="0 0 32 32" fill="none" xmlns="http://www.w3.org/2000/svg">
<path d="M23.3335 12.6667H13.2815C12.071 12.6872 10.9171 13.1826 10.0683 14.0459C9.21957 14.9092 8.74395 16.0714 8.74395 17.282C8.74395 18.4927 9.21957 19.6549 10.0683 20.5182C10.9171 21.3815 12.071 21.8768 13.2815 21.8973H19.3335M23.3335 12.6667L20.3335 9.89734M23.3335 12.6667L20.3335 15.436" stroke="url(#paint0_linear_1256_2123)" stroke-opacity="0.2" stroke-width="1.5" stroke-linecap="round" stroke-linejoin="round"/>
<path d="M29.3335 16C29.3335 9.71469 29.3335 6.57202 27.3815 4.61869C25.4268 2.66669 22.2855 2.66669 16.0002 2.66669C9.71483 2.66669 6.57216 2.66669 4.62016 4.61869C2.66683 6.57335 2.66683 9.71469 2.66683 16C2.66683 22.2854 2.66683 25.428 4.62016 27.38C6.57083 29.3334 9.71483 29.3334 16.0002 29.3334C22.2855 29.3334 25.4282 29.3334 27.3815 27.38C29.3335 25.4294 29.3335 22.2854 29.3335 16Z" stroke="url(#paint1_linear_1256_2123)" stroke-opacity="0.2" stroke-width="1.5"/>
<defs>
<linearGradient id="paint0_linear_1256_2123" x1="23.949" y1="12.1473" x2="7.67101" y2="12.4156" gradientUnits="userSpaceOnUse">
<stop stop-color="#DE225B"/>
<stop offset="1" stop-color="#E46D39"/>
</linearGradient>
<linearGradient id="paint1_linear_1256_2123" x1="30.4585" y1="7.6667" x2="0.703109" y2="8.07007" gradientUnits="userSpaceOnUse">
<stop stop-color="#DE225B"/>
<stop offset="1" stop-color="#E46D39"/>
</linearGradient>
</defs>
</svg>
