<svg width="24" height="24" viewBox="0 0 24 24" fill="none" xmlns="http://www.w3.org/2000/svg">
<path d="M17.1667 21C16.3796 21 15.7106 20.7229 15.1597 20.1687C14.6088 19.6146 14.3333 18.9417 14.3333 18.15C14.3333 18.0392 14.3412 17.9242 14.3569 17.8051C14.3727 17.6861 14.3963 17.5794 14.4278 17.485L7.76944 13.59C7.50185 13.8275 7.20278 14.0137 6.87222 14.1486C6.54167 14.2835 6.19537 14.3506 5.83333 14.35C5.0463 14.35 4.37731 14.0729 3.82639 13.5188C3.27546 12.9646 3 12.2917 3 11.5C3 10.7083 3.27546 10.0354 3.82639 9.48125C4.37731 8.92708 5.0463 8.65 5.83333 8.65C6.19537 8.65 6.54167 8.71745 6.87222 8.85235C7.20278 8.98725 7.50185 9.17313 7.76944 9.41L14.4278 5.515C14.3963 5.42 14.3727 5.31328 14.3569 5.19485C14.3412 5.07642 14.3333 4.96147 14.3333 4.85C14.3333 4.05833 14.6088 3.38542 15.1597 2.83125C15.7106 2.27708 16.3796 2 17.1667 2C17.9537 2 18.6227 2.27708 19.1736 2.83125C19.7245 3.38542 20 4.05833 20 4.85C20 5.64167 19.7245 6.31458 19.1736 6.86875C18.6227 7.42292 17.9537 7.7 17.1667 7.7C16.8046 7.7 16.4583 7.63287 16.1278 7.4986C15.7972 7.36433 15.4981 7.17813 15.2306 6.94L8.57222 10.835C8.6037 10.93 8.62732 11.037 8.64306 11.1561C8.6588 11.2752 8.66667 11.3898 8.66667 11.5C8.66667 11.6108 8.6588 11.7258 8.64306 11.8448C8.62732 11.9639 8.6037 12.0706 8.57222 12.165L15.2306 16.06C15.4981 15.8225 15.7972 15.6366 16.1278 15.5023C16.4583 15.3681 16.8046 15.3006 17.1667 15.3C17.9537 15.3 18.6227 15.5771 19.1736 16.1312C19.7245 16.6854 20 17.3583 20 18.15C20 18.9417 19.7245 19.6146 19.1736 20.1687C18.6227 20.7229 17.9537 21 17.1667 21Z" fill="black"/>
</svg>
