<svg width="20" height="20" viewBox="0 0 20 20" fill="none" xmlns="http://www.w3.org/2000/svg">
<path d="M1.95122 20C1.41464 20 0.955123 19.8093 0.572684 19.428C0.190245 19.0467 -0.00064875 18.5877 1.65638e-06 18.0512V4.40926C1.65638e-06 3.87332 0.191221 3.41437 0.57366 3.0324C0.956099 2.65043 1.41529 2.45976 1.95122 2.46041H10.6585L8.70732 4.40926H1.95122V18.0512H15.6098V11.2789L17.561 9.33008V18.0512C17.561 18.5871 17.3698 19.046 16.9873 19.428C16.6049 19.81 16.1457 20.0006 15.6098 20H1.95122ZM12.8537 3.02071L14.2439 4.3849L7.80488 10.8161V12.2046H9.17073L15.6341 5.74908L17.0244 7.11328L10 14.1535H5.85366V10.0122L12.8537 3.02071ZM17.0244 7.11328L12.8537 3.02071L15.2927 0.584653C15.6829 0.194884 16.1506 0 16.6956 0C17.2407 0 17.6998 0.194884 18.0732 0.584653L19.439 1.9732C19.813 2.34673 20 2.80146 20 3.33739C20 3.87332 19.813 4.32805 19.439 4.70158L17.0244 7.11328Z" fill="black"/>
</svg>
