<svg width="24" height="24" viewBox="0 0 24 24" fill="none" xmlns="http://www.w3.org/2000/svg">
<rect width="24" height="24" rx="12" fill="#2F2CCC" fill-opacity="0.5"/>
<path d="M18.7741 14.5827L13.4974 5.82112C13.3445 5.57121 13.1259 5.36391 12.8633 5.21986C12.6006 5.0758 12.3031 5 12.0003 5C11.6975 5 11.4 5.0758 11.1373 5.21986C10.8747 5.36391 10.6561 5.57121 10.5033 5.82112L5.22647 14.5827C5.07816 14.8252 5 15.1011 5 15.382C5 15.6629 5.07816 15.9388 5.22647 16.1813C5.37761 16.4324 5.59593 16.6406 5.85901 16.7845C6.12209 16.9284 6.42046 17.0027 6.72352 16.9999H17.2771C17.5799 17.0025 17.8781 16.9281 18.1409 16.7842C18.4038 16.6404 18.6219 16.4323 18.7729 16.1813C18.9214 15.9389 18.9998 15.6631 19 15.3821C19.0002 15.1012 18.9223 14.8253 18.7741 14.5827ZM17.5191 15.4884C17.4945 15.5284 17.4591 15.5613 17.4166 15.5836C17.3742 15.606 17.3261 15.6169 17.2777 15.6153H6.72352C6.67506 15.6169 6.62705 15.606 6.58456 15.5836C6.54208 15.5613 6.5067 15.5284 6.48215 15.4884C6.46134 15.4561 6.45032 15.4188 6.45032 15.3808C6.45032 15.3428 6.46134 15.3056 6.48215 15.2732L11.7589 6.51168C11.7849 6.47297 11.8206 6.44112 11.8627 6.41906C11.9049 6.397 11.9522 6.38544 12.0003 6.38544C12.0484 6.38544 12.0957 6.397 12.1379 6.41906C12.18 6.44112 12.2157 6.47297 12.2417 6.51168L17.5184 15.2732C17.5394 15.3055 17.5505 15.3428 17.5506 15.3807C17.5507 15.4187 17.5398 15.456 17.5191 15.4884Z" fill="white"/>
</svg>
