<svg width="46" height="46" viewBox="0 0 46 46" fill="none" xmlns="http://www.w3.org/2000/svg">
<circle cx="23" cy="23" r="23" fill="black" fill-opacity="0.6"/>
<g clip-path="url(#clip0_385_1527)">
<path d="M18.1834 13.9649C18.0676 13.7245 17.8863 13.5217 17.6603 13.3798C17.4344 13.2379 17.1729 13.1626 16.9061 13.1626C16.6393 13.1626 16.3778 13.2379 16.1519 13.3798C15.9259 13.5217 15.7446 13.7245 15.6288 13.9649L8.12875 29.9024C7.97025 30.2412 7.95281 30.6291 8.08027 30.9807C8.20774 31.3323 8.46967 31.6189 8.80844 31.7774C9.14721 31.9359 9.53508 31.9534 9.88671 31.8259C10.2383 31.6984 10.5249 31.4365 10.6834 31.0977L12.4998 27.2188H21.3123L23.1288 31.0977C23.2426 31.3401 23.4232 31.545 23.6495 31.6883C23.8758 31.8315 24.1383 31.9072 24.4061 31.9063C24.612 31.9042 24.8153 31.8603 25.0038 31.7774C25.3411 31.6173 25.6017 31.3307 25.7289 30.9796C25.8562 30.6286 25.8398 30.2415 25.6834 29.9024L18.1834 13.9649ZM13.8241 24.4063L16.9061 17.8673L19.9881 24.4063H13.8241ZM31.9061 18.6524C30.7806 18.6469 29.6805 18.9864 28.7538 19.6251C28.4476 19.8395 28.2392 20.1668 28.1744 20.5349C28.1095 20.903 28.1936 21.2818 28.4081 21.588C28.6225 21.8941 28.9498 22.1025 29.3179 22.1673C29.686 22.2322 30.0648 22.1481 30.3709 21.9337C30.8219 21.6224 31.3582 21.4586 31.9061 21.4649C33.1952 21.4649 34.2498 22.3087 34.2498 23.3399V23.504C33.513 23.1723 32.7142 23.0006 31.9061 23.0001C29.0584 23.0001 26.7498 25.0509 26.7498 27.5704C26.7498 30.0899 29.0584 32.1407 31.9061 32.1407C32.8559 32.1415 33.7908 31.9038 34.6248 31.4493C34.7554 31.5931 34.9146 31.708 35.0922 31.7867C35.2698 31.8654 35.4619 31.9062 35.6561 31.9063C36.0291 31.9063 36.3867 31.7582 36.6505 31.4944C36.9142 31.2307 37.0623 30.873 37.0623 30.5001V23.3399C37.0623 20.7501 34.7538 18.6524 31.9061 18.6524ZM31.9061 29.3282C30.6405 29.3282 29.5623 28.5196 29.5623 27.5704C29.5623 26.6212 30.6405 25.8126 31.9061 25.8126C33.1717 25.8126 34.2498 26.6212 34.2498 27.5704C34.2498 28.5196 33.1717 29.3282 31.9061 29.3282Z" fill="white"/>
</g>
<defs>
<clipPath id="clip0_385_1527">
<rect width="30" height="30" fill="white" transform="translate(8 8)"/>
</clipPath>
</defs>
</svg>
