<svg width="24" height="24" viewBox="0 0 24 24" fill="none" xmlns="http://www.w3.org/2000/svg">
<path d="M7 16H12V18H7V16Z" fill="black"/>
<path d="M20.3333 2H3.66667C3.22464 2 2.80072 2.17559 2.48816 2.48816C2.17559 2.80072 2 3.22464 2 3.66667V20.3333C2 20.7754 2.17559 21.1993 2.48816 21.5118C2.80072 21.8244 3.22464 22 3.66667 22H20.3333C20.7754 22 21.1993 21.8244 21.5118 21.5118C21.8244 21.1993 22 20.7754 22 20.3333V3.66667C22 3.22464 21.8244 2.80072 21.5118 2.48816C21.1993 2.17559 20.7754 2 20.3333 2ZM20.3333 3.66667V7H3.66667V3.66667H20.3333ZM3.66667 20.3333V8.66667H20.3333V20.3333H3.66667Z" fill="black"/>
</svg>
