<svg width="46" height="46" viewBox="0 0 46 46" fill="none" xmlns="http://www.w3.org/2000/svg">
<circle cx="23" cy="23" r="23" fill="white"/>
<g clip-path="url(#clip0_389_2056)">
<path d="M18.1837 13.9649C18.0678 13.7245 17.8865 13.5217 17.6606 13.3798C17.4346 13.2379 17.1732 13.1626 16.9063 13.1626C16.6395 13.1626 16.3781 13.2379 16.1521 13.3798C15.9262 13.5217 15.7449 13.7245 15.629 13.9649L8.129 29.9024C7.97049 30.2412 7.95305 30.6291 8.08052 30.9807C8.20798 31.3323 8.46991 31.6189 8.80869 31.7774C9.14746 31.9359 9.53532 31.9534 9.88695 31.8259C10.2386 31.6984 10.5252 31.4365 10.6837 31.0977L12.5001 27.2188H21.3126L23.129 31.0977C23.2428 31.3401 23.4235 31.545 23.6498 31.6883C23.8761 31.8315 24.1385 31.9072 24.4063 31.9063C24.6122 31.9042 24.8155 31.8603 25.004 31.7774C25.3413 31.6173 25.6019 31.3307 25.7292 30.9796C25.8564 30.6286 25.8401 30.2415 25.6837 29.9024L18.1837 13.9649ZM13.8243 24.4063L16.9063 17.8673L19.9884 24.4063H13.8243ZM31.9063 18.6524C30.7809 18.6469 29.6807 18.9864 28.754 19.6251C28.4479 19.8395 28.2395 20.1668 28.1746 20.5349C28.1098 20.903 28.1938 21.2818 28.4083 21.588C28.6227 21.8941 28.95 22.1025 29.3181 22.1673C29.6863 22.2322 30.065 22.1481 30.3712 21.9337C30.8221 21.6224 31.3585 21.4586 31.9063 21.4649C33.1954 21.4649 34.2501 22.3087 34.2501 23.3399V23.504C33.5132 23.1723 32.7144 23.0006 31.9063 23.0001C29.0587 23.0001 26.7501 25.0509 26.7501 27.5704C26.7501 30.0899 29.0587 32.1407 31.9063 32.1407C32.8562 32.1415 33.791 31.9038 34.6251 31.4493C34.7557 31.5931 34.9149 31.708 35.0924 31.7867C35.27 31.8654 35.4621 31.9062 35.6563 31.9063C36.0293 31.9063 36.387 31.7582 36.6507 31.4944C36.9144 31.2307 37.0626 30.873 37.0626 30.5001V23.3399C37.0626 20.7501 34.754 18.6524 31.9063 18.6524ZM31.9063 29.3282C30.6407 29.3282 29.5626 28.5196 29.5626 27.5704C29.5626 26.6212 30.6407 25.8126 31.9063 25.8126C33.172 25.8126 34.2501 26.6212 34.2501 27.5704C34.2501 28.5196 33.172 29.3282 31.9063 29.3282Z" fill="#010101"/>
</g>
<defs>
<clipPath id="clip0_389_2056">
<rect width="30" height="30" fill="white" transform="translate(8 8)"/>
</clipPath>
</defs>
</svg>
