<svg width="32" height="32" viewBox="0 0 32 32" fill="none" xmlns="http://www.w3.org/2000/svg">
<path d="M8.6665 12.6667H18.7185C19.929 12.6872 21.0829 13.1826 21.9317 14.0459C22.7804 14.9092 23.2561 16.0714 23.2561 17.282C23.2561 18.4927 22.7804 19.6549 21.9317 20.5182C21.0829 21.3815 19.929 21.8768 18.7185 21.8973H12.6665M8.6665 12.6667L11.6665 9.89734M8.6665 12.6667L11.6665 15.436" stroke="url(#paint0_linear_1256_2132)" stroke-opacity="0.2" stroke-width="1.5" stroke-linecap="round" stroke-linejoin="round"/>
<path d="M2.6665 16C2.6665 9.71469 2.6665 6.57202 4.6185 4.61869C6.57317 2.66669 9.7145 2.66669 15.9998 2.66669C22.2852 2.66669 25.4278 2.66669 27.3798 4.61869C29.3332 6.57335 29.3332 9.71469 29.3332 16C29.3332 22.2854 29.3332 25.428 27.3798 27.38C25.4292 29.3334 22.2852 29.3334 15.9998 29.3334C9.7145 29.3334 6.57184 29.3334 4.6185 27.38C2.6665 25.4294 2.6665 22.2854 2.6665 16Z" stroke="url(#paint1_linear_1256_2132)" stroke-opacity="0.2" stroke-width="1.5"/>
<defs>
<linearGradient id="paint0_linear_1256_2132" x1="8.05101" y1="12.1473" x2="24.329" y2="12.4156" gradientUnits="userSpaceOnUse">
<stop stop-color="#DE225B"/>
<stop offset="1" stop-color="#E46D39"/>
</linearGradient>
<linearGradient id="paint1_linear_1256_2132" x1="1.5415" y1="7.6667" x2="31.2969" y2="8.07007" gradientUnits="userSpaceOnUse">
<stop stop-color="#DE225B"/>
<stop offset="1" stop-color="#E46D39"/>
</linearGradient>
</defs>
</svg>
