<svg width="32" height="32" viewBox="0 0 32 32" fill="none" xmlns="http://www.w3.org/2000/svg">
<path d="M8.6665 12.6663H18.7185C19.929 12.6869 21.0829 13.1822 21.9317 14.0455C22.7804 14.9088 23.2561 16.071 23.2561 17.2816C23.2561 18.4923 22.7804 19.6545 21.9317 20.5178C21.0829 21.3811 19.929 21.8764 18.7185 21.897H12.6665M8.6665 12.6663L11.6665 9.89697M8.6665 12.6663L11.6665 15.4356" stroke="url(#paint0_linear_733_2479)" stroke-width="1.5" stroke-linecap="round" stroke-linejoin="round"/>
<path d="M2.6665 15.9998C2.6665 9.7145 2.6665 6.57184 4.6185 4.6185C6.57317 2.6665 9.7145 2.6665 15.9998 2.6665C22.2852 2.6665 25.4278 2.6665 27.3798 4.6185C29.3332 6.57317 29.3332 9.7145 29.3332 15.9998C29.3332 22.2852 29.3332 25.4278 27.3798 27.3798C25.4292 29.3332 22.2852 29.3332 15.9998 29.3332C9.7145 29.3332 6.57184 29.3332 4.6185 27.3798C2.6665 25.4292 2.6665 22.2852 2.6665 15.9998Z" stroke="url(#paint1_linear_733_2479)" stroke-width="1.5"/>
<defs>
<linearGradient id="paint0_linear_733_2479" x1="8.05101" y1="12.147" x2="24.329" y2="12.4153" gradientUnits="userSpaceOnUse">
<stop stop-color="#DE225B"/>
<stop offset="1" stop-color="#E46D39"/>
</linearGradient>
<linearGradient id="paint1_linear_733_2479" x1="1.5415" y1="7.66652" x2="31.2969" y2="8.06989" gradientUnits="userSpaceOnUse">
<stop stop-color="#DE225B"/>
<stop offset="1" stop-color="#E46D39"/>
</linearGradient>
</defs>
</svg>
