<svg width="14" height="14" viewBox="0 0 14 14" fill="none" xmlns="http://www.w3.org/2000/svg">
<path d="M2.45 0C1.092 0 0 1.092 0 2.45V11.55C0 12.908 1.092 14 2.45 14H9.8L14 9.8V2.45C14 1.092 12.908 0 11.55 0H2.45ZM2.625 1.4H11.375C11.6999 1.4 12.0115 1.52906 12.2412 1.75879C12.4709 1.98853 12.6 2.30011 12.6 2.625V9.1H11.55C10.192 9.1 9.1 10.192 9.1 11.55V12.6H2.625C2.30011 12.6 1.98853 12.4709 1.75879 12.2412C1.52906 12.0115 1.4 11.6999 1.4 11.375V2.625C1.4 2.30011 1.52906 1.98853 1.75879 1.75879C1.98853 1.52906 2.30011 1.4 2.625 1.4ZM8.708 3.339C8.596 3.339 8.484 3.353 8.379 3.381C7.721 3.563 7.35 4.235 7.518 4.9C7.553 5.005 7.602 5.11 7.665 5.208L9.926 4.592C9.926 4.473 9.912 4.354 9.884 4.235C9.737 3.71 9.254 3.339 8.708 3.339ZM4.319 4.55C4.2 4.55 4.095 4.55 3.99 4.585C3.339 4.767 2.954 5.439 3.129 6.09C3.15 6.202 3.213 6.3 3.276 6.412L5.537 5.796C5.537 5.677 5.523 5.558 5.495 5.446C5.42652 5.18715 5.2737 4.95851 5.06072 4.79624C4.84774 4.63397 4.58674 4.54732 4.319 4.55ZM10.304 6.482L3.913 8.239C4.36686 8.76421 4.9598 9.15059 5.62357 9.35369C6.28733 9.55678 6.99496 9.56833 7.665 9.387C8.33355 9.19996 8.9358 8.82817 9.4026 8.31431C9.8694 7.80046 10.1818 7.16539 10.304 6.482Z" fill="white"/>
</svg>
