<svg width="70" height="42" viewBox="0 0 70 42" fill="none" xmlns="http://www.w3.org/2000/svg">
<path d="M30.45 14C29.092 14 28 15.092 28 16.45V25.55C28 26.908 29.092 28 30.45 28H37.8L42 23.8V16.45C42 15.092 40.908 14 39.55 14H30.45ZM30.625 15.4H39.375C39.6999 15.4 40.0115 15.5291 40.2412 15.7588C40.4709 15.9885 40.6 16.3001 40.6 16.625V23.1H39.55C38.192 23.1 37.1 24.192 37.1 25.55V26.6H30.625C30.3001 26.6 29.9885 26.4709 29.7588 26.2412C29.5291 26.0115 29.4 25.6999 29.4 25.375V16.625C29.4 16.3001 29.5291 15.9885 29.7588 15.7588C29.9885 15.5291 30.3001 15.4 30.625 15.4ZM36.708 17.339C36.596 17.339 36.484 17.353 36.379 17.381C35.721 17.563 35.35 18.235 35.518 18.9C35.553 19.005 35.602 19.11 35.665 19.208L37.926 18.592C37.926 18.473 37.912 18.354 37.884 18.235C37.737 17.71 37.254 17.339 36.708 17.339ZM32.319 18.55C32.2 18.55 32.095 18.55 31.99 18.585C31.339 18.767 30.954 19.439 31.129 20.09C31.15 20.202 31.213 20.3 31.276 20.412L33.537 19.796C33.537 19.677 33.523 19.558 33.495 19.446C33.4265 19.1871 33.2737 18.9585 33.0607 18.7962C32.8477 18.634 32.5867 18.5473 32.319 18.55ZM38.304 20.482L31.913 22.239C32.3669 22.7642 32.9598 23.1506 33.6236 23.3537C34.2873 23.5568 34.995 23.5683 35.665 23.387C36.3335 23.2 36.9358 22.8282 37.4026 22.3143C37.8694 21.8005 38.1818 21.1654 38.304 20.482Z" fill="white"/>
</svg>
