<svg width="19" height="19" viewBox="0 0 19 19" fill="none" xmlns="http://www.w3.org/2000/svg">
<path d="M14 0H2C1.46957 0 0.960859 0.210714 0.585786 0.585786C0.210714 0.960859 0 1.46957 0 2V16C0 16.5304 0.210714 17.0391 0.585786 17.4142C0.960859 17.7893 1.46957 18 2 18H9.81C9.45 17.38 9.2 16.7 9.08 16H9C7.34 16 6 14.66 6 13C6 11.34 7.34 10 9 10C9.68 10 10.34 10.23 10.87 10.65C11.9853 9.59256 13.4631 9.00217 15 9C16.05 9 17.09 9.28 18 9.81V4L14 0ZM12 6H2V2H12V6ZM14 11V14H11V16H14V19H16V16H19V14H16V11H14Z" fill="white"/>
</svg>
