<svg width="24" height="11" viewBox="0 0 24 11" fill="none" xmlns="http://www.w3.org/2000/svg">
<path d="M3.9077 10.12C3.2517 10.12 2.6237 10.028 2.0237 9.844C1.4237 9.652 0.947698 9.408 0.595698 9.112L1.1357 7.9C1.4717 8.164 1.8877 8.384 2.3837 8.56C2.8797 8.736 3.3877 8.824 3.9077 8.824C4.3477 8.824 4.7037 8.776 4.9757 8.68C5.2477 8.584 5.4477 8.456 5.5757 8.296C5.7037 8.128 5.7677 7.94 5.7677 7.732C5.7677 7.476 5.6757 7.272 5.4917 7.12C5.3077 6.96 5.0677 6.836 4.7717 6.748C4.4837 6.652 4.1597 6.564 3.7997 6.484C3.4477 6.404 3.0917 6.312 2.7317 6.208C2.3797 6.096 2.0557 5.956 1.7597 5.788C1.4717 5.612 1.2357 5.38 1.0517 5.092C0.867698 4.804 0.775698 4.436 0.775698 3.988C0.775698 3.532 0.895698 3.116 1.1357 2.74C1.3837 2.356 1.7557 2.052 2.2517 1.828C2.7557 1.596 3.3917 1.48 4.1597 1.48C4.6637 1.48 5.1637 1.544 5.6597 1.672C6.1557 1.8 6.5877 1.984 6.9557 2.224L6.4637 3.436C6.0877 3.212 5.6997 3.048 5.2997 2.944C4.8997 2.832 4.5157 2.776 4.1477 2.776C3.7157 2.776 3.3637 2.828 3.0917 2.932C2.8277 3.036 2.6317 3.172 2.5037 3.34C2.3837 3.508 2.3237 3.7 2.3237 3.916C2.3237 4.172 2.4117 4.38 2.5877 4.54C2.7717 4.692 3.0077 4.812 3.2957 4.9C3.5917 4.988 3.9197 5.076 4.2797 5.164C4.6397 5.244 4.9957 5.336 5.3477 5.44C5.7077 5.544 6.0317 5.68 6.3197 5.848C6.6157 6.016 6.8517 6.244 7.0277 6.532C7.2117 6.82 7.3037 7.184 7.3037 7.624C7.3037 8.072 7.1797 8.488 6.9317 8.872C6.6917 9.248 6.3197 9.552 5.8157 9.784C5.3117 10.008 4.6757 10.12 3.9077 10.12ZM8.46657 10V3.592H9.96657V10H8.46657ZM9.22257 2.536C8.94257 2.536 8.71057 2.448 8.52657 2.272C8.35057 2.096 8.26257 1.884 8.26257 1.636C8.26257 1.38 8.35057 1.168 8.52657 0.999999C8.71057 0.824 8.94257 0.736 9.22257 0.736C9.50257 0.736 9.73057 0.82 9.90657 0.987999C10.0906 1.148 10.1826 1.352 10.1826 1.6C10.1826 1.864 10.0946 2.088 9.91857 2.272C9.74257 2.448 9.51057 2.536 9.22257 2.536ZM11.1673 10V9.052L15.1153 4.276L15.3913 4.792H11.2393V3.592H16.5913V4.54L12.6433 9.316L12.3433 8.8H16.6993V10H11.1673ZM20.7603 10.084C20.0483 10.084 19.4243 9.944 18.8883 9.664C18.3603 9.376 17.9483 8.984 17.6523 8.488C17.3643 7.992 17.2203 7.428 17.2203 6.796C17.2203 6.156 17.3603 5.592 17.6403 5.104C17.9283 4.608 18.3203 4.22 18.8163 3.94C19.3203 3.66 19.8923 3.52 20.5323 3.52C21.1563 3.52 21.7123 3.656 22.2003 3.928C22.6883 4.2 23.0723 4.584 23.3523 5.08C23.6323 5.576 23.7723 6.16 23.7723 6.832C23.7723 6.896 23.7683 6.968 23.7603 7.048C23.7603 7.128 23.7563 7.204 23.7483 7.276H18.4083V6.28H22.9563L22.3683 6.592C22.3763 6.224 22.3003 5.9 22.1403 5.62C21.9803 5.34 21.7603 5.12 21.4803 4.96C21.2083 4.8 20.8923 4.72 20.5323 4.72C20.1643 4.72 19.8403 4.8 19.5603 4.96C19.2883 5.12 19.0723 5.344 18.9123 5.632C18.7603 5.912 18.6843 6.244 18.6843 6.628V6.868C18.6843 7.252 18.7723 7.592 18.9483 7.888C19.1243 8.184 19.3723 8.412 19.6923 8.572C20.0123 8.732 20.3803 8.812 20.7963 8.812C21.1563 8.812 21.4803 8.756 21.7683 8.644C22.0563 8.532 22.3123 8.356 22.5363 8.116L23.3403 9.04C23.0523 9.376 22.6883 9.636 22.2483 9.82C21.8163 9.996 21.3203 10.084 20.7603 10.084Z" fill="url(#paint0_linear_374_5643)"/>
<defs>
<linearGradient id="paint0_linear_374_5643" x1="-4.2827" y1="-3.37498" x2="29.6437" y2="-2.90886" gradientUnits="userSpaceOnUse">
<stop stop-color="#DE225B"/>
<stop offset="1" stop-color="#E46D39"/>
</linearGradient>
</defs>
</svg>
